<svg width="1042" height="949" viewBox="0 0 1042 949" fill="none" xmlns="http://www.w3.org/2000/svg">
<path d="M-706.343 1226.42L-534.855 1063.42L-346.521 1053.36L-374.471 1270.26L-375.201 1270.49L-317.488 1381.48L-320.27 1392.29L-315.05 1382.35L-173.916 1314.26L-187.821 1386.69L-194.29 1393.62L-186.285 1388.76L-30.4653 1415.13L-30.3885 1415.13L761.323 1552.27L764.876 1559.16L764.127 1554.42L771.596 1560.66L763.511 1550.5L690.24 1089.45L691.698 1086.92L486.901 1147.59L367.526 1052.86L369.177 1051.86L367.334 1051.63L462.162 881.838L597.479 917.265L598.169 914.654L463.524 879.4L518.221 781.46L523.231 776.834L339.919 847.046L55.9022 772.714L285.107 641.977L283.762 639.635L53.1373 771.177L-9.08327 576.09L76.2641 427.799L-188.601 206.621L-189.676 204.432L-399.476 616.122L-786.722 541.136L-788.777 540.733L-711.843 874.838L-712.937 875.741L-711.497 876.336L-711.151 877.795L-710.076 876.912L-594.531 924.239L-594.8 924.661L-592.88 924.93L-591.978 925.295L-591.843 925.084L-389.429 953.133L-539.905 1063.75L-539.041 1063.69L-708.225 1224.5L-706.362 1226.48L-706.343 1226.42ZM-343.737 1052.99L-271.401 1034L-370.69 1262.02L-343.737 1052.99ZM-268.041 1033.14L-224.559 1021.72L-281.652 1242.8L-370.823 1269.18L-268.022 1033.12L-268.041 1033.14ZM50.8338 772.905L-107.513 984.249L-10.3687 580.909L50.8338 772.905ZM352.682 930.946L232.109 891.259L340.092 849.907L418.195 870.349L352.701 930.965L352.682 930.946ZM351.742 933.499L363.379 1048.52L232.205 894.158L351.742 933.499ZM-98.3545 1295.04L-35.1342 1293.91L-178.837 1381.09L-98.3544 1295.07L-98.3545 1295.04ZM-97.6638 1292.31L-98.2041 1277.72L45.1951 1208.55L63.5728 1234.03L-30.5272 1291.11L-97.6638 1292.31ZM-278.657 1241.88L-221.583 1020.94L-113.06 992.446L-237.92 1229.83L-278.657 1241.88ZM-239.686 1233.17L-311.827 1370.33L-279.444 1244.93L-239.686 1233.17ZM148.223 1155.84L160.886 1114.6L349.462 1058.79L148.242 1155.86L148.223 1155.84ZM340.21 1066.23L138.093 1188.82L147.149 1159.37L340.21 1066.23ZM144.902 1157.43L46.0776 1205.1L12.4907 1158.5L157.776 1115.48L144.902 1157.43ZM143.808 1160.98L134.618 1190.95L65.9147 1232.61L47.7099 1207.35L143.847 1160.98L143.808 1160.98ZM133.409 1194.84L105.109 1287.01L67.5086 1234.82L133.409 1194.84ZM136.903 1192.73L354.032 1061.05L108.372 1285.67L136.903 1192.73ZM161.865 1111.47L186.673 1030.67L358.638 1053.22L161.865 1111.47ZM158.755 1112.39L10.8392 1156.19L-107.435 992.121L-107.281 992.159L183.947 1030.32L158.736 1112.41L158.755 1112.39ZM8.07469 1157L-101.523 1189.44L-108.874 994.751L8.05553 1156.98L8.07469 1157ZM-187.378 888.569L-162.841 793.56L-113.369 984.268L-187.378 888.569ZM-189.471 885.861L-198.707 873.937L-168.445 804.425L-189.471 885.861ZM-200.589 871.479L-227.147 837.128L-166.086 792.235L-200.589 871.479ZM-113.483 988.53L-209.747 975.188L-188.241 891.89L-113.502 988.51L-113.483 988.53ZM-117.284 990.756L-220.758 1017.92L-210.418 977.856L-117.284 990.756ZM-113.424 999.07L-152.876 1204.66L-234.253 1228.74L-113.443 999.05L-113.424 999.07ZM-111.273 1002.26L-104.191 1190.23L-149.958 1203.78L-111.311 1002.26L-111.273 1002.26ZM-104.076 1193.03L-100.931 1276.03L-170.211 1309.44L-150.533 1206.77L-104.095 1193.01L-104.076 1193.03ZM-101.388 1192.23L9.78389 1159.32L43.6396 1206.31L-98.2623 1274.74L-101.388 1192.23ZM65.1859 1236.22L102.997 1288.7L-25.1132 1291L65.1667 1236.24L65.1859 1236.22ZM362.939 1056.56L333.188 1193.58L190.39 1395.4L107.49 1290.12L362.958 1056.54L362.939 1056.56ZM334.705 1196.13L756.619 1548.14L192.655 1396.9L334.686 1196.15L334.705 1196.13ZM337.258 1194.73L450.004 1161.33L752.855 1541.42L337.277 1194.71L337.258 1194.73ZM336.259 1192.19L365.895 1055.76L448.18 1159.04L336.259 1192.19ZM361.901 1050.88L187.498 1028L228.615 894.061L361.882 1050.86L361.901 1050.88ZM184.772 1027.65L-103.807 989.799L226.023 893.312L184.772 1027.65ZM-110.431 984.71L-161.402 788.242L-159.579 784.038L-162.036 785.843L-162.862 782.713L-164.052 787.32L-228.856 834.959L-388.146 629.025L-396.173 618.657L-12.3468 577.395L-110.47 984.71L-110.431 984.71ZM-201.837 874.301L-243.71 970.478L-382.403 951.253L-229.336 838.741L-201.817 874.321L-201.837 874.301ZM-199.936 876.74L-195.692 882.212L-190.315 889.163L-212.434 974.803L-240.907 970.862L-199.916 876.759L-199.936 876.74ZM-213.125 977.452L-223.773 1018.67L-266.64 1029.93L-242.039 973.454L-213.125 977.452ZM-371.264 1272.12L-282.438 1245.81L-316.452 1377.49L-371.265 1272.08L-371.264 1272.12ZM-312.9 1378.28L-236 1232.1L-153.451 1207.65L-173.264 1310.92L-312.9 1378.28ZM-170.844 1312.76L-100.815 1278.99L-100.275 1293.15L-184.289 1382.97L-170.825 1312.78L-170.844 1312.76ZM-29.7011 1293.78L102.076 1291.43L-30.6386 1412.31L-182.676 1386.58L-29.6627 1293.78L-29.7011 1293.78ZM-27.2787 1412.91L105.417 1292.04L106.128 1293.02L106.185 1292.89L190.506 1399.97L191.024 1399.26L732.908 1544.58L-27.2787 1412.91ZM759.555 1542.93L603.069 1240.34L688.071 1093.2L759.555 1542.93ZM685.959 1091.47L601.149 1238.26L489.512 1149.66L685.959 1091.47ZM600.458 1241.18L754.659 1539.38L452.807 1160.52L486.326 1150.58L600.458 1241.18ZM450.983 1158.24L373.652 1061.17L483.733 1148.53L450.983 1158.24ZM366.105 1048.29L354.449 933.02L421.305 871.156L459.454 881.127L366.105 1048.29ZM460.817 878.689L423.666 868.948L511.772 787.41L460.798 878.67L460.817 878.689ZM511.061 784.396L420.556 868.141L344.43 848.218L511.042 784.415L511.061 784.396ZM227.635 890.049L-106.86 987.897L52.8692 774.71L335.561 848.716L227.616 890.068L227.635 890.049ZM72.8084 428.374L-10.4278 572.98L-185.682 212.534L72.8084 428.374ZM-12.5777 574.746L-396.039 615.95L-392.969 611.112L-394.504 612.379L-189.695 210.48L-12.5777 574.746ZM-785.128 544.151L-401.741 618.387L-709.444 872.861L-785.128 544.151ZM-592.996 921.859L-707.639 874.897L-580.008 769.349L-404.351 624.069L-456.497 706.401L-592.977 921.839L-592.996 921.859ZM-590.174 922.493L-454.5 708.322L-398.534 619.981L-230.949 836.629L-386.223 950.772L-590.193 922.512L-590.174 922.493ZM-385.493 953.575L-244.784 973.088L-269.923 1030.83L-345.101 1050.55L-530.882 1060.48L-385.474 953.595L-385.493 953.575Z" fill="url(#paint0_linear_612_1332)"/>
<g style="mix-blend-mode:screen" filter="url(#filter0_d_612_1332)">
<path d="M72.3289 431.311C70.5432 430.102 70.0628 427.663 71.272 425.878C72.4811 424.093 74.9192 423.613 76.7049 424.823C78.4906 426.033 78.971 428.471 77.7618 430.257C76.5527 432.042 74.1146 432.521 72.3289 431.311Z" fill="url(#paint1_radial_612_1332)"/>
<path d="M-14.9953 582.464C-18.6435 580.006 -19.6236 575.071 -17.1669 571.424C-14.7101 567.777 -9.77633 566.799 -6.12817 569.257C-2.48 571.715 -1.49995 576.649 -3.95666 580.296C-6.41337 583.944 -11.3472 584.922 -14.9953 582.464Z" fill="url(#paint2_radial_612_1332)"/>
<path d="M47.7632 779.97C43.9998 777.435 43.0006 772.328 45.5341 768.565C48.0676 764.803 53.1741 763.806 56.9375 766.34C60.7009 768.875 61.7002 773.982 59.1667 777.745C56.6332 781.507 51.5266 782.504 47.7632 779.97Z" fill="url(#paint3_radial_612_1332)"/>
<path d="M282.112 644.242C280.212 642.956 279.693 640.364 280.979 638.463C282.265 636.563 284.856 636.045 286.757 637.332C288.658 638.618 289.177 641.21 287.891 643.111C286.605 645.011 284.013 645.529 282.112 644.242Z" fill="url(#paint4_radial_612_1332)"/>
<path d="M595.252 919.8C593.121 918.359 592.545 915.479 593.984 913.349C595.424 911.218 598.303 910.642 600.434 912.083C602.566 913.523 603.142 916.403 601.703 918.534C600.263 920.664 597.384 921.24 595.252 919.8Z" fill="url(#paint5_radial_612_1332)"/>
<path d="M513.385 789.753C508.949 786.776 507.777 780.767 510.752 776.333C513.727 771.898 519.736 770.728 524.171 773.705C528.607 776.682 529.779 782.691 526.804 787.125C523.829 791.559 517.82 792.729 513.385 789.753Z" fill="url(#paint6_radial_612_1332)"/>
<path d="M223.068 902.413C217.827 898.899 216.443 891.795 219.974 886.574C223.487 881.333 230.59 879.952 235.813 883.486C241.054 887 242.438 894.104 238.907 899.325C235.375 904.547 228.291 905.947 223.068 902.413Z" fill="url(#paint7_radial_612_1332)"/>
<path d="M348.614 939.009C344.985 936.57 344.043 931.674 346.461 928.065C348.899 924.437 353.794 923.497 357.404 925.917C361.033 928.356 361.975 933.252 359.556 936.86C357.119 940.488 352.223 941.428 348.614 939.009Z" fill="url(#paint8_radial_612_1332)"/>
<path d="M218.312 928.1C216.603 928.426 214.952 927.312 214.606 925.623C214.28 923.914 215.393 922.263 217.082 921.918C218.791 921.592 220.442 922.706 220.788 924.395C221.115 926.104 220.001 927.755 218.312 928.1Z" fill="url(#paint9_radial_612_1332)"/>
<path d="M277.39 951.474C275.912 951.762 274.472 950.783 274.184 949.304C273.895 947.826 274.874 946.386 276.352 946.098C277.831 945.811 279.271 946.79 279.559 948.269C279.847 949.747 278.868 951.187 277.39 951.474Z" fill="url(#paint10_radial_612_1332)"/>
<path d="M265.791 937.305C264.659 937.516 263.583 936.786 263.353 935.673C263.141 934.54 263.871 933.465 264.984 933.235C266.117 933.024 267.192 933.754 267.423 934.867C267.634 936 266.905 937.075 265.791 937.305Z" fill="url(#paint11_radial_612_1332)"/>
<path d="M181.696 702.03C180.372 702.28 179.104 701.435 178.854 700.11C178.605 698.785 179.449 697.518 180.774 697.269C182.098 697.02 183.366 697.865 183.616 699.189C183.865 700.514 183.021 701.781 181.696 702.03Z" fill="url(#paint12_radial_612_1332)"/>
<path d="M462.239 884.142C460.089 884.564 457.996 883.162 457.592 881.031C457.169 878.88 458.57 876.788 460.701 876.385C462.852 875.963 464.945 877.365 465.348 879.496C465.771 881.647 464.37 883.739 462.239 884.142Z" fill="url(#paint13_radial_612_1332)"/>
<path d="M421.613 873.231C419.616 873.614 417.715 872.328 417.312 870.35C416.928 868.354 418.213 866.453 420.191 866.05C422.187 865.667 424.088 866.953 424.492 868.931C424.876 870.928 423.59 872.828 421.613 873.231Z" fill="url(#paint14_radial_612_1332)"/>
<path d="M340.496 852.461C337.981 852.941 335.542 851.308 335.062 848.793C334.581 846.278 336.213 843.84 338.728 843.361C341.243 842.881 343.681 844.514 344.162 847.029C344.642 849.544 343.011 851.982 340.496 852.461Z" fill="url(#paint15_radial_612_1332)"/>
<path d="M220.614 820.685C218.599 821.087 216.621 819.762 216.237 817.727C215.833 815.711 217.157 813.734 219.192 813.351C221.208 812.948 223.186 814.273 223.57 816.308C223.974 818.324 222.649 820.301 220.614 820.685Z" fill="url(#paint16_radial_612_1332)"/>
<path d="M143.836 799.417C142.492 799.686 141.186 798.802 140.917 797.458C140.648 796.114 141.531 794.809 142.875 794.54C144.219 794.272 145.525 795.155 145.794 796.499C146.063 797.843 145.18 799.149 143.836 799.417Z" fill="url(#paint17_radial_612_1332)"/>
</g>
<defs>
<filter id="filter0_d_612_1332" x="-795.919" y="193.914" width="1570.33" height="1369.31" filterUnits="userSpaceOnUse" color-interpolation-filters="sRGB">
<feFlood flood-opacity="0" result="BackgroundImageFix"/>
<feColorMatrix in="SourceAlpha" type="matrix" values="0 0 0 0 0 0 0 0 0 0 0 0 0 0 0 0 0 0 127 0" result="hardAlpha"/>
<feOffset/>
<feGaussianBlur stdDeviation="3"/>
<feColorMatrix type="matrix" values="0 0 0 0 0 0 0 0 0 0.94902 0 0 0 0 1 0 0 0 0.7 0"/>
<feBlend mode="normal" in2="BackgroundImageFix" result="effect1_dropShadow_612_1332"/>
<feBlend mode="normal" in="SourceGraphic" in2="effect1_dropShadow_612_1332" result="shape"/>
</filter>
<linearGradient id="paint0_linear_612_1332" x1="-178.367" y1="1431.92" x2="92.1779" y2="824.836" gradientUnits="userSpaceOnUse">
<stop stop-color="#0085E6"/>
<stop offset="0.13" stop-color="#007FDE" stop-opacity="0.96"/>
<stop offset="0.38" stop-color="#0071CA" stop-opacity="0.84"/>
<stop offset="0.72" stop-color="#005BA9" stop-opacity="0.66"/>
<stop offset="1" stop-color="#00478C" stop-opacity="0.49"/>
</linearGradient>
<radialGradient id="paint1_radial_612_1332" cx="0" cy="0" r="1" gradientTransform="matrix(0.752078 3.83695 -3.83667 0.750646 74.3123 427.861)" gradientUnits="userSpaceOnUse">
<stop offset="0.19" stop-color="#00FFFF"/>
<stop offset="0.4" stop-color="#00FCFD" stop-opacity="0.99"/>
<stop offset="0.51" stop-color="#02F4F7" stop-opacity="0.96"/>
<stop offset="0.6" stop-color="#05E7EE" stop-opacity="0.91"/>
<stop offset="0.68" stop-color="#0AD4E1" stop-opacity="0.83"/>
<stop offset="0.74" stop-color="#10BBCF" stop-opacity="0.74"/>
<stop offset="0.81" stop-color="#179CBA" stop-opacity="0.62"/>
<stop offset="0.86" stop-color="#2078A1" stop-opacity="0.47"/>
<stop offset="0.92" stop-color="#2A4E83" stop-opacity="0.31"/>
<stop offset="0.97" stop-color="#351F63" stop-opacity="0.13"/>
<stop offset="1" stop-color="#3D004D" stop-opacity="0"/>
</radialGradient>
<radialGradient id="paint2_radial_612_1332" cx="0" cy="0" r="1" gradientTransform="matrix(1.53029 7.80715 -7.80658 1.52734 -10.7511 575.675)" gradientUnits="userSpaceOnUse">
<stop offset="0.19" stop-color="#00FFFF"/>
<stop offset="0.4" stop-color="#00FCFD" stop-opacity="0.99"/>
<stop offset="0.51" stop-color="#02F4F7" stop-opacity="0.96"/>
<stop offset="0.6" stop-color="#05E7EE" stop-opacity="0.91"/>
<stop offset="0.68" stop-color="#0AD4E1" stop-opacity="0.83"/>
<stop offset="0.74" stop-color="#10BBCF" stop-opacity="0.74"/>
<stop offset="0.81" stop-color="#179CBA" stop-opacity="0.62"/>
<stop offset="0.86" stop-color="#2078A1" stop-opacity="0.47"/>
<stop offset="0.92" stop-color="#2A4E83" stop-opacity="0.31"/>
<stop offset="0.97" stop-color="#351F63" stop-opacity="0.13"/>
<stop offset="1" stop-color="#3D004D" stop-opacity="0"/>
</radialGradient>
<radialGradient id="paint3_radial_612_1332" cx="0" cy="0" r="1" gradientTransform="matrix(1.58252 8.07361 -8.07301 1.57947 52.1517 772.948)" gradientUnits="userSpaceOnUse">
<stop offset="0.19" stop-color="#00FFFF"/>
<stop offset="0.4" stop-color="#00FCFD" stop-opacity="0.99"/>
<stop offset="0.51" stop-color="#02F4F7" stop-opacity="0.96"/>
<stop offset="0.6" stop-color="#05E7EE" stop-opacity="0.91"/>
<stop offset="0.68" stop-color="#0AD4E1" stop-opacity="0.83"/>
<stop offset="0.74" stop-color="#10BBCF" stop-opacity="0.74"/>
<stop offset="0.81" stop-color="#179CBA" stop-opacity="0.62"/>
<stop offset="0.86" stop-color="#2078A1" stop-opacity="0.47"/>
<stop offset="0.92" stop-color="#2A4E83" stop-opacity="0.31"/>
<stop offset="0.97" stop-color="#351F63" stop-opacity="0.13"/>
<stop offset="1" stop-color="#3D004D" stop-opacity="0"/>
</radialGradient>
<radialGradient id="paint4_radial_612_1332" cx="0" cy="0" r="1" gradientTransform="matrix(0.804325 4.10343 -4.10312 0.802761 284.236 640.555)" gradientUnits="userSpaceOnUse">
<stop offset="0.19" stop-color="#00FFFF"/>
<stop offset="0.4" stop-color="#00FCFD" stop-opacity="0.99"/>
<stop offset="0.51" stop-color="#02F4F7" stop-opacity="0.96"/>
<stop offset="0.6" stop-color="#05E7EE" stop-opacity="0.91"/>
<stop offset="0.68" stop-color="#0AD4E1" stop-opacity="0.83"/>
<stop offset="0.74" stop-color="#10BBCF" stop-opacity="0.74"/>
<stop offset="0.81" stop-color="#179CBA" stop-opacity="0.62"/>
<stop offset="0.86" stop-color="#2078A1" stop-opacity="0.47"/>
<stop offset="0.92" stop-color="#2A4E83" stop-opacity="0.31"/>
<stop offset="0.97" stop-color="#351F63" stop-opacity="0.13"/>
<stop offset="1" stop-color="#3D004D" stop-opacity="0"/>
</radialGradient>
<radialGradient id="paint5_radial_612_1332" cx="0" cy="0" r="1" gradientTransform="matrix(0.893106 4.55639 -4.55606 0.891382 597.641 915.702)" gradientUnits="userSpaceOnUse">
<stop offset="0.19" stop-color="#00FFFF"/>
<stop offset="0.4" stop-color="#00FCFD" stop-opacity="0.99"/>
<stop offset="0.51" stop-color="#02F4F7" stop-opacity="0.96"/>
<stop offset="0.6" stop-color="#05E7EE" stop-opacity="0.91"/>
<stop offset="0.68" stop-color="#0AD4E1" stop-opacity="0.83"/>
<stop offset="0.74" stop-color="#10BBCF" stop-opacity="0.74"/>
<stop offset="0.81" stop-color="#179CBA" stop-opacity="0.62"/>
<stop offset="0.86" stop-color="#2078A1" stop-opacity="0.47"/>
<stop offset="0.92" stop-color="#2A4E83" stop-opacity="0.31"/>
<stop offset="0.97" stop-color="#351F63" stop-opacity="0.13"/>
<stop offset="1" stop-color="#3D004D" stop-opacity="0"/>
</radialGradient>
<radialGradient id="paint6_radial_612_1332" cx="0" cy="0" r="1" gradientTransform="matrix(1.85932 9.48582 -9.48512 1.85575 518.571 781.463)" gradientUnits="userSpaceOnUse">
<stop offset="0.19" stop-color="#00FFFF"/>
<stop offset="0.4" stop-color="#00FCFD" stop-opacity="0.99"/>
<stop offset="0.51" stop-color="#02F4F7" stop-opacity="0.96"/>
<stop offset="0.6" stop-color="#05E7EE" stop-opacity="0.91"/>
<stop offset="0.68" stop-color="#0AD4E1" stop-opacity="0.83"/>
<stop offset="0.74" stop-color="#10BBCF" stop-opacity="0.74"/>
<stop offset="0.81" stop-color="#179CBA" stop-opacity="0.62"/>
<stop offset="0.86" stop-color="#2078A1" stop-opacity="0.47"/>
<stop offset="0.92" stop-color="#2A4E83" stop-opacity="0.31"/>
<stop offset="0.97" stop-color="#351F63" stop-opacity="0.13"/>
<stop offset="1" stop-color="#3D004D" stop-opacity="0"/>
</radialGradient>
<radialGradient id="paint7_radial_612_1332" cx="0" cy="0" r="1" gradientTransform="matrix(2.19359 11.1911 -11.1903 2.18936 229.226 892.717)" gradientUnits="userSpaceOnUse">
<stop offset="0.19" stop-color="#00FFFF"/>
<stop offset="0.4" stop-color="#00FCFD" stop-opacity="0.99"/>
<stop offset="0.51" stop-color="#02F4F7" stop-opacity="0.96"/>
<stop offset="0.6" stop-color="#05E7EE" stop-opacity="0.91"/>
<stop offset="0.68" stop-color="#0AD4E1" stop-opacity="0.83"/>
<stop offset="0.74" stop-color="#10BBCF" stop-opacity="0.74"/>
<stop offset="0.81" stop-color="#179CBA" stop-opacity="0.62"/>
<stop offset="0.86" stop-color="#2078A1" stop-opacity="0.47"/>
<stop offset="0.92" stop-color="#2A4E83" stop-opacity="0.31"/>
<stop offset="0.97" stop-color="#351F63" stop-opacity="0.13"/>
<stop offset="1" stop-color="#3D004D" stop-opacity="0"/>
</radialGradient>
<radialGradient id="paint8_radial_612_1332" cx="0" cy="0" r="1" gradientTransform="matrix(1.51986 7.75387 -7.75329 1.5169 352.811 932.255)" gradientUnits="userSpaceOnUse">
<stop offset="0.19" stop-color="#00FFFF"/>
<stop offset="0.4" stop-color="#00FCFD" stop-opacity="0.99"/>
<stop offset="0.51" stop-color="#02F4F7" stop-opacity="0.96"/>
<stop offset="0.6" stop-color="#05E7EE" stop-opacity="0.91"/>
<stop offset="0.68" stop-color="#0AD4E1" stop-opacity="0.83"/>
<stop offset="0.74" stop-color="#10BBCF" stop-opacity="0.74"/>
<stop offset="0.81" stop-color="#179CBA" stop-opacity="0.62"/>
<stop offset="0.86" stop-color="#2078A1" stop-opacity="0.47"/>
<stop offset="0.92" stop-color="#2A4E83" stop-opacity="0.31"/>
<stop offset="0.97" stop-color="#351F63" stop-opacity="0.13"/>
<stop offset="1" stop-color="#3D004D" stop-opacity="0"/>
</radialGradient>
<radialGradient id="paint9_radial_612_1332" cx="0" cy="0" r="1" gradientTransform="matrix(0.605838 3.09088 -3.09065 0.604689 217.527 924.776)" gradientUnits="userSpaceOnUse">
<stop offset="0.19" stop-color="#00FFFF"/>
<stop offset="0.4" stop-color="#00FCFD" stop-opacity="0.99"/>
<stop offset="0.51" stop-color="#02F4F7" stop-opacity="0.96"/>
<stop offset="0.6" stop-color="#05E7EE" stop-opacity="0.91"/>
<stop offset="0.68" stop-color="#0AD4E1" stop-opacity="0.83"/>
<stop offset="0.74" stop-color="#10BBCF" stop-opacity="0.74"/>
<stop offset="0.81" stop-color="#179CBA" stop-opacity="0.62"/>
<stop offset="0.86" stop-color="#2078A1" stop-opacity="0.47"/>
<stop offset="0.92" stop-color="#2A4E83" stop-opacity="0.31"/>
<stop offset="0.97" stop-color="#351F63" stop-opacity="0.13"/>
<stop offset="1" stop-color="#3D004D" stop-opacity="0"/>
</radialGradient>
<radialGradient id="paint10_radial_612_1332" cx="0" cy="0" r="1" gradientTransform="matrix(0.527515 2.69121 -2.69101 0.526483 276.69 948.559)" gradientUnits="userSpaceOnUse">
<stop offset="0.19" stop-color="#00FFFF"/>
<stop offset="0.4" stop-color="#00FCFD" stop-opacity="0.99"/>
<stop offset="0.51" stop-color="#02F4F7" stop-opacity="0.96"/>
<stop offset="0.6" stop-color="#05E7EE" stop-opacity="0.91"/>
<stop offset="0.68" stop-color="#0AD4E1" stop-opacity="0.83"/>
<stop offset="0.74" stop-color="#10BBCF" stop-opacity="0.74"/>
<stop offset="0.81" stop-color="#179CBA" stop-opacity="0.62"/>
<stop offset="0.86" stop-color="#2078A1" stop-opacity="0.47"/>
<stop offset="0.92" stop-color="#2A4E83" stop-opacity="0.31"/>
<stop offset="0.97" stop-color="#351F63" stop-opacity="0.13"/>
<stop offset="1" stop-color="#3D004D" stop-opacity="0"/>
</radialGradient>
<radialGradient id="paint11_radial_612_1332" cx="0" cy="0" r="1" gradientTransform="matrix(0.402165 2.05171 -2.05156 0.401377 265.187 935.04)" gradientUnits="userSpaceOnUse">
<stop offset="0.19" stop-color="#00FFFF"/>
<stop offset="0.4" stop-color="#00FCFD" stop-opacity="0.99"/>
<stop offset="0.51" stop-color="#02F4F7" stop-opacity="0.96"/>
<stop offset="0.6" stop-color="#05E7EE" stop-opacity="0.91"/>
<stop offset="0.68" stop-color="#0AD4E1" stop-opacity="0.83"/>
<stop offset="0.74" stop-color="#10BBCF" stop-opacity="0.74"/>
<stop offset="0.81" stop-color="#179CBA" stop-opacity="0.62"/>
<stop offset="0.86" stop-color="#2078A1" stop-opacity="0.47"/>
<stop offset="0.92" stop-color="#2A4E83" stop-opacity="0.31"/>
<stop offset="0.97" stop-color="#351F63" stop-opacity="0.13"/>
<stop offset="1" stop-color="#3D004D" stop-opacity="0"/>
</radialGradient>
<radialGradient id="paint12_radial_612_1332" cx="0" cy="0" r="1" gradientTransform="matrix(0.46484 2.37146 -2.37128 0.463929 181.02 699.429)" gradientUnits="userSpaceOnUse">
<stop offset="0.19" stop-color="#00FFFF"/>
<stop offset="0.4" stop-color="#00FCFD" stop-opacity="0.99"/>
<stop offset="0.51" stop-color="#02F4F7" stop-opacity="0.96"/>
<stop offset="0.6" stop-color="#05E7EE" stop-opacity="0.91"/>
<stop offset="0.68" stop-color="#0AD4E1" stop-opacity="0.83"/>
<stop offset="0.74" stop-color="#10BBCF" stop-opacity="0.74"/>
<stop offset="0.81" stop-color="#179CBA" stop-opacity="0.62"/>
<stop offset="0.86" stop-color="#2078A1" stop-opacity="0.47"/>
<stop offset="0.92" stop-color="#2A4E83" stop-opacity="0.31"/>
<stop offset="0.97" stop-color="#351F63" stop-opacity="0.13"/>
<stop offset="1" stop-color="#3D004D" stop-opacity="0"/>
</radialGradient>
<radialGradient id="paint13_radial_612_1332" cx="0" cy="0" r="1" gradientTransform="matrix(0.762549 3.89027 -3.88997 0.761053 461.284 880.017)" gradientUnits="userSpaceOnUse">
<stop offset="0.19" stop-color="#00FFFF"/>
<stop offset="0.4" stop-color="#00FCFD" stop-opacity="0.99"/>
<stop offset="0.51" stop-color="#02F4F7" stop-opacity="0.96"/>
<stop offset="0.6" stop-color="#05E7EE" stop-opacity="0.91"/>
<stop offset="0.68" stop-color="#0AD4E1" stop-opacity="0.83"/>
<stop offset="0.74" stop-color="#10BBCF" stop-opacity="0.74"/>
<stop offset="0.81" stop-color="#179CBA" stop-opacity="0.62"/>
<stop offset="0.86" stop-color="#2078A1" stop-opacity="0.47"/>
<stop offset="0.92" stop-color="#2A4E83" stop-opacity="0.31"/>
<stop offset="0.97" stop-color="#351F63" stop-opacity="0.13"/>
<stop offset="1" stop-color="#3D004D" stop-opacity="0"/>
</radialGradient>
<radialGradient id="paint14_radial_612_1332" cx="0" cy="0" r="1" gradientTransform="matrix(0.705078 3.59715 -3.59688 0.703727 420.723 869.417)" gradientUnits="userSpaceOnUse">
<stop offset="0.19" stop-color="#00FFFF"/>
<stop offset="0.4" stop-color="#00FCFD" stop-opacity="0.99"/>
<stop offset="0.51" stop-color="#02F4F7" stop-opacity="0.96"/>
<stop offset="0.6" stop-color="#05E7EE" stop-opacity="0.91"/>
<stop offset="0.68" stop-color="#0AD4E1" stop-opacity="0.83"/>
<stop offset="0.74" stop-color="#10BBCF" stop-opacity="0.74"/>
<stop offset="0.81" stop-color="#179CBA" stop-opacity="0.62"/>
<stop offset="0.86" stop-color="#2078A1" stop-opacity="0.47"/>
<stop offset="0.92" stop-color="#2A4E83" stop-opacity="0.31"/>
<stop offset="0.97" stop-color="#351F63" stop-opacity="0.13"/>
<stop offset="1" stop-color="#3D004D" stop-opacity="0"/>
</radialGradient>
<radialGradient id="paint15_radial_612_1332" cx="0" cy="0" r="1" gradientTransform="matrix(0.893099 4.55639 -4.55605 0.891387 339.412 847.669)" gradientUnits="userSpaceOnUse">
<stop offset="0.19" stop-color="#00FFFF"/>
<stop offset="0.4" stop-color="#00FCFD" stop-opacity="0.99"/>
<stop offset="0.51" stop-color="#02F4F7" stop-opacity="0.96"/>
<stop offset="0.6" stop-color="#05E7EE" stop-opacity="0.91"/>
<stop offset="0.68" stop-color="#0AD4E1" stop-opacity="0.83"/>
<stop offset="0.74" stop-color="#10BBCF" stop-opacity="0.74"/>
<stop offset="0.81" stop-color="#179CBA" stop-opacity="0.62"/>
<stop offset="0.86" stop-color="#2078A1" stop-opacity="0.47"/>
<stop offset="0.92" stop-color="#2A4E83" stop-opacity="0.31"/>
<stop offset="0.97" stop-color="#351F63" stop-opacity="0.13"/>
<stop offset="1" stop-color="#3D004D" stop-opacity="0"/>
</radialGradient>
<radialGradient id="paint16_radial_612_1332" cx="0" cy="0" r="1" gradientTransform="matrix(0.720755 3.67709 -3.67682 0.719357 219.713 816.805)" gradientUnits="userSpaceOnUse">
<stop offset="0.19" stop-color="#00FFFF"/>
<stop offset="0.4" stop-color="#00FCFD" stop-opacity="0.99"/>
<stop offset="0.51" stop-color="#02F4F7" stop-opacity="0.96"/>
<stop offset="0.6" stop-color="#05E7EE" stop-opacity="0.91"/>
<stop offset="0.68" stop-color="#0AD4E1" stop-opacity="0.83"/>
<stop offset="0.74" stop-color="#10BBCF" stop-opacity="0.74"/>
<stop offset="0.81" stop-color="#179CBA" stop-opacity="0.62"/>
<stop offset="0.86" stop-color="#2078A1" stop-opacity="0.47"/>
<stop offset="0.92" stop-color="#2A4E83" stop-opacity="0.31"/>
<stop offset="0.97" stop-color="#351F63" stop-opacity="0.13"/>
<stop offset="1" stop-color="#3D004D" stop-opacity="0"/>
</radialGradient>
<radialGradient id="paint17_radial_612_1332" cx="0" cy="0" r="1" gradientTransform="matrix(0.480515 2.45141 -2.45123 0.479567 143.162 796.755)" gradientUnits="userSpaceOnUse">
<stop offset="0.19" stop-color="#00FFFF"/>
<stop offset="0.4" stop-color="#00FCFD" stop-opacity="0.99"/>
<stop offset="0.51" stop-color="#02F4F7" stop-opacity="0.96"/>
<stop offset="0.6" stop-color="#05E7EE" stop-opacity="0.91"/>
<stop offset="0.68" stop-color="#0AD4E1" stop-opacity="0.83"/>
<stop offset="0.74" stop-color="#10BBCF" stop-opacity="0.74"/>
<stop offset="0.81" stop-color="#179CBA" stop-opacity="0.62"/>
<stop offset="0.86" stop-color="#2078A1" stop-opacity="0.47"/>
<stop offset="0.92" stop-color="#2A4E83" stop-opacity="0.31"/>
<stop offset="0.97" stop-color="#351F63" stop-opacity="0.13"/>
<stop offset="1" stop-color="#3D004D" stop-opacity="0"/>
</radialGradient>
</defs>
</svg>
