<svg width="450" height="855" viewBox="0 0 450 855" fill="none" xmlns="http://www.w3.org/2000/svg">
<path d="M-463.473 389.91L-283.527 394.807L-177.164 484.218L-309.303 578.087L-309.818 577.835L-338.847 661.975L-346.176 665.957L-338.007 663.628L-225.595 700.515L-272.172 729.57L-279.382 729.774L-272.469 731.372L-203.21 822.603L-203.169 822.641L147.031 1287.75L145.212 1292.96L147.371 1290.22L148.003 1297.07L149.157 1287.97L358.931 1021.92L361.081 1021.39L218.562 948.895L205.758 841.935L207.182 842.266L206.319 841.227L348.852 804.315L402.231 889.773L404.011 888.82L350.899 803.785L433.114 782.492L438.298 782.703L302.136 725.727L190.085 546.373L383.533 596.252L384.077 594.413L189.433 544.223L261.468 415.998L387.306 385.027L364.839 142.236L365.445 140.608L30.6356 240.198L-136.383 8.76768L-137.266 7.53715L-276.509 212.283L-277.582 212.183L-277.132 213.201L-277.735 214.1L-276.682 214.2L-240.326 295.664L-240.699 295.74L-239.815 296.836L-239.529 297.47L-239.343 297.432L-146.021 412.857L-286.408 392.437L-285.914 392.842L-463.444 388.012L-463.514 389.929L-463.473 389.91ZM-175.475 485.432L-126.452 512.249L-302.828 575.886L-175.475 485.432ZM-124.185 513.504L-94.7174 529.624L-244.731 610.963L-306.768 579.381L-124.164 513.504L-124.185 513.504ZM187.265 543.927L-11.7522 569.664L258.176 417.75L187.265 543.927ZM263.656 773.856L220.479 693.671L300.683 727.237L331.496 776.559L263.656 773.875L263.656 773.856ZM261.773 774.655L205.88 837.697L218.965 695.161L261.773 774.655ZM-174.719 728.834L-140.234 759.97L-264.331 731.287L-174.739 728.853L-174.719 728.834ZM-172.876 727.824L-165.284 720.296L-51.0778 757.784L-54.9926 779.67L-136.252 760.886L-172.876 727.824ZM-242.629 612.006L-92.6979 530.725L-19.1522 570.96L-214.29 626.435L-242.629 612.006ZM-217.04 627.212L-329.788 659.266L-244.699 613.13L-217.04 627.212ZM32.6108 783.213L61.6709 769.051L192.875 835.828L32.6107 783.232L32.6108 783.213ZM183.894 834.893L9.3668 794.538L30.127 784.431L183.894 834.893ZM29.9706 782.34L-48.7383 756.508L-41.5653 716.492L59.5276 767.931L29.9706 782.34ZM27.4662 783.558L6.35409 793.856L-52.9703 780.138L-49.0771 758.443L27.4867 783.578L27.4662 783.558ZM3.6013 795.188L-61.3494 826.843L-53.309 782.035L3.6013 795.188ZM6.6139 795.89L194.1 839.246L-58.8749 827.81L6.6139 795.89ZM63.8855 767.985L120.826 740.233L200.799 837.659L63.8855 767.985ZM61.7215 766.884L-41.2057 714.518L-15.9621 573.618L-15.9005 573.714L119.552 738.694L61.7008 766.884L61.7215 766.884ZM-43.1224 713.533L-119.38 674.726L-18.154 574.204L-43.1223 713.513L-43.1224 713.533ZM-2.86775 482.036L61.6013 447.082L-14.8999 566.737L-2.86775 482.036ZM-2.52706 479.64L-1.03604 469.079L52.7292 449.677L-2.52706 479.64ZM-0.716969 466.913L3.60594 436.514L60.5783 444.796L-0.716969 466.913ZM-17.2634 568.8L-61.6435 513.905L-5.12439 483.255L-17.2633 568.78L-17.2634 568.8ZM-20.5028 568.002L-90.6278 529.639L-63.4447 514.896L-20.5028 568.002ZM-22.9247 574.072L-155.118 656.549L-211.734 627.73L-22.9246 574.053L-22.9247 574.072ZM-23.4938 576.736L-121.235 673.78L-153.078 657.573L-23.5143 576.716L-23.4938 576.736ZM-122.687 675.232L-165.833 718.089L-221.007 699.975L-155.004 658.774L-122.687 675.213L-122.687 675.232ZM-120.811 676.178L-43.4615 715.545L-50.6979 755.887L-163.708 718.787L-120.811 676.178ZM-55.3105 781.568L-63.3933 826.624L-133.289 763.543L-55.3311 781.568L-55.3105 781.568ZM201.299 841.477L111.346 894.711L-74.1969 923.507L-61.7535 829.583L201.319 841.477L201.299 841.477ZM110.78 896.741L146.74 1283.34L-73.7918 925.388L110.759 896.741L110.78 896.741ZM112.905 897.324L191.368 937.232L148.353 1278.11L112.925 897.324L112.905 897.324ZM113.738 895.563L203.318 842.559L191.624 935.181L113.738 895.563ZM203.812 838.131L122.71 739.319L217.093 693.313L203.812 838.111L203.812 838.131ZM121.436 737.781L-12.7634 574.282L216.109 691.641L121.436 737.781ZM-13.5645 568.43L65.2448 445.158L68.4927 443.981L66.2014 443.647L67.4491 441.676L64.323 443.371L3.86205 434.578L29.737 252.296L31.0362 243.114L259.014 415.011L-13.5851 568.41L-13.5645 568.43ZM-2.90971 467.692L-77.2998 494.536L-141.24 415.445L1.56238 436.219L-2.90979 467.711L-2.90971 467.692ZM-3.20815 469.858L-3.88984 474.707L-4.76298 480.86L-62.8762 512.366L-76.0053 496.133L-3.20823 469.877L-3.20815 469.858ZM-64.6773 513.338L-92.6471 528.501L-121.703 512.611L-78.0119 496.854L-64.6773 513.338ZM-308.591 580.621L-246.781 612.068L-336.135 660.509L-308.57 580.602L-308.591 580.621ZM-334.657 662.681L-214.485 628.525L-157.044 657.751L-223.441 699.18L-334.657 662.681ZM-223.14 701.31L-167.368 719.617L-174.731 726.935L-268.268 729.489L-223.14 701.329L-223.14 701.31ZM-137.25 762.627L-65.3593 827.518L-201.779 821.112L-269.353 732.093L-137.23 762.647L-137.25 762.627ZM-200.3 823.093L-63.9013 829.499L-64.0495 830.342L-63.946 830.304L-76.6028 925.838L-75.9415 925.744L135.954 1269.68L-200.3 823.093ZM151.124 1282.22L230.715 1053.26L355.746 1022.69L151.124 1282.22ZM355.548 1020.78L230.806 1051.27L218.841 951.236L355.548 1020.78ZM228.86 1052.38L150.419 1278L193.305 938.236L216.636 950.097L228.86 1052.38ZM193.562 936.185L204.55 849.141L216.356 947.775L193.562 936.185ZM207.465 838.949L263.483 775.773L332.727 778.52L347.785 802.604L207.465 838.949ZM349.832 802.075L335.185 778.605L426.444 782.219L349.832 802.055L349.832 802.075ZM427.691 780.363L333.954 776.645L303.92 728.572L427.67 780.363L427.691 780.363ZM218.735 690.826L-13.3724 571.806L187.381 545.845L298.898 724.373L218.715 690.826L218.735 690.826ZM385.144 383.581L262.427 413.777L363.209 146.641L385.144 383.581ZM260.322 413.578L32.5702 241.835L36.8288 240.968L35.3216 240.829L362.169 143.607L260.322 413.578ZM-137.157 11.0661L28.1983 240.189L-274.155 212.502L-137.157 11.0661ZM-238.218 295.25L-274.287 214.42L-148.878 225.906L23.7304 241.707L-48.6873 256.515L-238.197 295.25L-238.218 295.25ZM-237.048 296.98L-48.6544 258.472L29.0556 242.589L1.83883 434.36L-143.028 413.29L-237.069 296.98L-237.048 296.98ZM-144.151 415.05L-79.2859 495.296L-123.949 511.414L-174.889 483.535L-279.811 395.338L-144.151 415.07L-144.151 415.05Z" fill="url(#paint0_linear_612_11)"/>
<g style="mix-blend-mode:screen" filter="url(#filter0_d_612_11)">
<path d="M194.302 841.17C193.923 834.763 199.186 829.209 206.039 828.78C212.894 828.334 218.755 833.178 219.116 839.583C219.494 845.99 214.231 851.543 207.379 851.972C200.523 852.418 194.662 847.575 194.302 841.17Z" fill="url(#paint1_radial_612_11)"/>
<path d="M22.0498 240.532C21.8442 237.065 24.6831 234.078 28.3919 233.836C32.0824 233.592 35.2531 236.207 35.4587 239.673C35.6669 243.122 32.8254 246.126 29.1167 246.369C25.4261 246.613 22.2554 243.998 22.0498 240.532Z" fill="url(#paint2_radial_612_11)"/>
<path d="M358.828 139.737C358.682 137.112 360.82 134.842 363.631 134.651C366.442 134.46 368.835 136.444 368.999 139.071C369.163 141.698 367.007 143.966 364.196 144.157C361.388 144.331 358.992 142.364 358.828 139.737Z" fill="url(#paint3_radial_612_11)"/>
<path d="M384.85 382.303C384.776 380.939 385.899 379.75 387.359 379.66C388.82 379.571 390.075 380.605 390.149 381.97C390.223 383.335 389.1 384.524 387.64 384.613C386.18 384.702 384.924 383.668 384.85 382.303Z" fill="url(#paint4_radial_612_11)"/>
<path d="M256.06 413.883C255.9 411.1 258.171 408.689 261.148 408.5C264.126 408.311 266.67 410.401 266.83 413.184C266.989 415.966 264.718 418.377 261.741 418.566C258.763 418.755 256.219 416.666 256.06 413.883Z" fill="url(#paint5_radial_612_11)"/>
<path d="M183.14 544.156C182.976 541.285 185.332 538.798 188.403 538.603C191.474 538.407 194.099 540.576 194.264 543.446C194.429 546.316 192.073 548.804 189.002 548.999C185.93 549.195 183.305 547.026 183.14 544.156Z" fill="url(#paint6_radial_612_11)"/>
<path d="M383.164 593.904C383.084 592.451 384.275 591.183 385.829 591.088C387.383 590.992 388.721 592.088 388.801 593.54C388.881 594.993 387.69 596.261 386.136 596.357C384.582 596.452 383.244 595.356 383.164 593.904Z" fill="url(#paint7_radial_612_11)"/>
<path d="M429.996 782.023C429.796 778.644 432.57 775.719 436.185 775.484C439.8 775.248 442.887 777.801 443.087 781.18C443.288 784.558 440.514 787.483 436.898 787.719C433.283 787.955 430.196 785.402 429.996 782.023Z" fill="url(#paint8_radial_612_11)"/>
<path d="M211.992 692.921C211.753 688.93 215.034 685.473 219.302 685.21C223.573 684.929 227.222 687.948 227.442 691.938C227.68 695.929 224.4 699.386 220.132 699.649C215.863 699.912 212.212 696.911 211.992 692.921Z" fill="url(#paint9_radial_612_11)"/>
<path d="M259.878 774.421C259.716 771.655 261.982 769.279 264.923 769.085C267.882 768.894 270.39 770.979 270.554 773.728C270.716 776.494 268.451 778.87 265.51 779.063C262.551 779.255 260.043 777.169 259.878 774.421Z" fill="url(#paint10_radial_612_11)"/>
<path d="M58.5218 443.944C58.3596 441.056 60.7184 438.552 63.8077 438.359C66.8971 438.165 69.5406 440.336 69.7028 443.224C69.8651 446.111 67.5063 448.616 64.4169 448.809C61.3276 449.002 58.684 446.831 58.5218 443.944Z" fill="url(#paint11_radial_612_11)"/>
<path d="M6.25758 796.201C5.66259 795.714 5.60537 794.855 6.15296 794.294C6.70054 793.732 7.60103 793.664 8.19346 794.168C8.78844 794.656 8.84569 795.514 8.2981 796.076C7.76875 796.639 6.85001 796.705 6.25758 796.201Z" fill="url(#paint12_radial_612_11)"/>
<path d="M30.059 784.433C29.5475 784.007 29.5063 783.29 29.9657 782.822C30.4276 782.337 31.1954 782.289 31.6886 782.712C32.2001 783.137 32.2413 783.854 31.782 784.322C31.3201 784.807 30.5523 784.856 30.059 784.433Z" fill="url(#paint13_radial_612_11)"/>
<path d="M0.520001 436.229C-0.30466 435.541 -0.386303 434.349 0.363619 433.551C1.11099 432.769 2.38626 432.676 3.22915 433.366C4.05381 434.054 4.13546 435.245 3.38554 436.044C2.63816 436.825 1.36289 436.919 0.520001 436.229Z" fill="url(#paint14_radial_612_11)"/>
<path d="M10.6869 526.926C9.90918 526.296 9.85376 525.177 10.5363 524.457C11.2189 523.738 12.4189 523.653 13.1785 524.281C13.9562 524.911 14.0116 526.03 13.329 526.75C12.6439 527.486 11.4465 527.554 10.6869 526.926Z" fill="url(#paint15_radial_612_11)"/>
<path d="M71.953 560.358C71.225 559.769 71.1776 558.72 71.8185 558.03C72.4594 557.341 73.5812 557.281 74.3092 557.871C75.0373 558.461 75.0847 559.509 74.4438 560.199C73.8029 560.889 72.6811 560.948 71.953 560.358Z" fill="url(#paint16_radial_612_11)"/>
<path d="M194.585 704.111C193.71 703.383 193.639 702.122 194.412 701.292C195.204 700.464 196.552 700.379 197.429 701.09C198.303 701.819 198.374 703.079 197.601 703.909C196.81 704.738 195.461 704.823 194.585 704.111Z" fill="url(#paint17_radial_612_11)"/>
<path d="M213.923 745.435C213.164 744.807 213.106 743.705 213.788 742.985C214.471 742.266 215.65 742.196 216.409 742.824C217.169 743.452 217.227 744.554 216.544 745.273C215.862 745.993 214.683 746.063 213.923 745.435Z" fill="url(#paint18_radial_612_11)"/>
<path d="M215.331 732.607C214.754 732.122 214.71 731.3 215.219 730.751C215.745 730.204 216.625 730.151 217.204 730.619C217.781 731.104 217.825 731.926 217.317 732.475C216.79 733.022 215.91 733.075 215.331 732.607Z" fill="url(#paint19_radial_612_11)"/>
<path d="M297.157 572.682C296.481 572.116 296.421 571.153 297.036 570.512C297.651 569.872 298.682 569.802 299.358 570.368C300.034 570.934 300.094 571.897 299.479 572.538C298.864 573.178 297.833 573.249 297.157 572.682Z" fill="url(#paint20_radial_612_11)"/>
<path d="M238.92 426.892C238.142 426.262 238.087 425.142 238.769 424.423C239.454 423.686 240.651 423.618 241.41 424.246C242.17 424.874 242.243 425.996 241.561 426.716C240.876 427.452 239.679 427.52 238.92 426.892Z" fill="url(#paint21_radial_612_11)"/>
<path d="M287.621 341.824C286.977 341.296 286.914 340.35 287.506 339.741C288.079 339.131 289.092 339.059 289.734 339.603C290.378 340.131 290.441 341.077 289.849 341.686C289.276 342.296 288.263 342.369 287.621 341.824Z" fill="url(#paint22_radial_612_11)"/>
<path d="M169.983 347.248C169.338 346.72 169.291 345.793 169.865 345.183C170.438 344.572 171.43 344.515 172.074 345.042C172.719 345.57 172.766 346.497 172.192 347.108C171.619 347.718 170.627 347.776 169.983 347.248Z" fill="url(#paint23_radial_612_11)"/>
<path d="M21.1475 286.082C20.2393 285.332 20.173 284.038 20.9696 283.175C21.7662 282.313 23.169 282.234 24.0797 282.967C24.9904 283.7 25.0542 285.011 24.2576 285.874C23.4428 286.734 22.0582 286.815 21.1475 286.082Z" fill="url(#paint24_radial_612_11)"/>
<path d="M6.38308 213.567C5.34186 212.715 5.25146 211.209 6.19352 210.242C7.11989 209.255 8.73092 209.149 9.75135 210.016C10.7926 210.869 10.883 212.375 9.94095 213.342C9.01457 214.328 7.40352 214.434 6.38308 213.567Z" fill="url(#paint25_radial_612_11)"/>
<path d="M115.642 215.334C114.554 214.423 114.453 212.864 115.442 211.833C116.43 210.802 118.099 210.685 119.187 211.595C120.275 212.505 120.376 214.064 119.387 215.096C118.399 216.127 116.73 216.244 115.642 215.334Z" fill="url(#paint26_radial_612_11)"/>
<path d="M120.017 741.16C118.597 739.985 118.492 737.956 119.751 736.608C121.028 735.263 123.198 735.136 124.62 736.294C126.04 737.469 126.145 739.498 124.887 740.845C123.61 742.19 121.439 742.318 120.017 741.16Z" fill="url(#paint27_radial_612_11)"/>
<path d="M61.5237 769.186C60.8296 768.617 60.7589 767.601 61.3947 766.945C62.0123 766.288 63.1001 766.207 63.7917 766.792C64.4833 767.378 64.5566 768.377 63.9208 769.033C63.3032 769.69 62.2153 769.771 61.5237 769.186Z" fill="url(#paint28_radial_612_11)"/>
<path d="M137.78 819.33C137.235 818.884 137.186 818.096 137.671 817.579C138.156 817.062 139 817.005 139.545 817.452C140.09 817.898 140.14 818.686 139.654 819.203C139.169 819.72 138.326 819.777 137.78 819.33Z" fill="url(#paint29_radial_612_11)"/>
<path d="M120.533 838.554C119.542 837.742 119.459 836.307 120.341 835.368C121.224 834.428 122.759 834.33 123.751 835.142C124.743 835.954 124.825 837.389 123.943 838.329C123.06 839.268 121.525 839.366 120.533 838.554Z" fill="url(#paint30_radial_612_11)"/>
<path d="M143.075 766.804C142.232 766.114 142.171 764.907 142.921 764.108C143.671 763.31 144.962 763.236 145.805 763.926C146.647 764.616 146.708 765.823 145.958 766.621C145.209 767.42 143.918 767.494 143.075 766.804Z" fill="url(#paint31_radial_612_11)"/>
<path d="M350.398 804.135C349.291 803.222 349.195 801.629 350.184 800.598C351.175 799.55 352.88 799.437 353.968 800.347C355.075 801.259 355.171 802.853 354.182 803.884C353.191 804.932 351.486 805.045 350.398 804.135Z" fill="url(#paint32_radial_612_11)"/>
<path d="M334.321 778.365C333.298 777.515 333.218 776.062 334.124 775.091C335.048 774.122 336.602 774.026 337.627 774.859C338.65 775.71 338.73 777.162 337.824 778.133C336.901 779.103 335.347 779.198 334.321 778.365Z" fill="url(#paint33_radial_612_11)"/>
<path d="M301.631 727.251C300.345 726.178 300.232 724.322 301.397 723.103C302.563 721.884 304.548 721.752 305.835 722.825C307.122 723.897 307.234 725.753 306.069 726.972C304.904 728.191 302.918 728.323 301.631 727.251Z" fill="url(#paint34_radial_612_11)"/>
<path d="M253.963 651.424C252.922 650.572 252.831 649.066 253.776 648.082C254.702 647.096 256.313 646.989 257.352 647.859C258.393 648.711 258.483 650.217 257.539 651.201C256.612 652.188 255.001 652.294 253.963 651.424Z" fill="url(#paint35_radial_612_11)"/>
<path d="M223.945 602.477C223.251 601.908 223.195 600.911 223.813 600.253C224.431 599.596 225.498 599.53 226.192 600.098C226.886 600.667 226.941 601.664 226.323 602.322C225.706 602.979 224.639 603.045 223.945 602.477Z" fill="url(#paint36_radial_612_11)"/>
</g>
<defs>
<filter id="filter0_d_612_11" x="-476.45" y="0.220261" width="925.547" height="1298.32" filterUnits="userSpaceOnUse" color-interpolation-filters="sRGB">
<feFlood flood-opacity="0" result="BackgroundImageFix"/>
<feColorMatrix in="SourceAlpha" type="matrix" values="0 0 0 0 0 0 0 0 0 0 0 0 0 0 0 0 0 0 127 0" result="hardAlpha"/>
<feOffset/>
<feGaussianBlur stdDeviation="3"/>
<feColorMatrix type="matrix" values="0 0 0 0 0 0 0 0 0 0.94902 0 0 0 0 1 0 0 0 0.7 0"/>
<feBlend mode="normal" in2="BackgroundImageFix" result="effect1_dropShadow_612_11"/>
<feBlend mode="normal" in="SourceGraphic" in2="effect1_dropShadow_612_11" result="shape"/>
</filter>
<linearGradient id="paint0_linear_612_11" x1="-291.539" y1="756.808" x2="172.008" y2="567.552" gradientUnits="userSpaceOnUse">
<stop stop-color="#0085E6"/>
<stop offset="0.13" stop-color="#007FDE" stop-opacity="0.96"/>
<stop offset="0.38" stop-color="#0071CA" stop-opacity="0.84"/>
<stop offset="0.72" stop-color="#005BA9" stop-opacity="0.66"/>
<stop offset="1" stop-color="#00478C" stop-opacity="0.49"/>
</linearGradient>
<radialGradient id="paint1_radial_612_11" cx="0" cy="0" r="1" gradientTransform="matrix(-8.29565 8.7629 -9.24905 -7.63492 206.762 840.173)" gradientUnits="userSpaceOnUse">
<stop offset="0.19" stop-color="#00FFFF"/>
<stop offset="0.4" stop-color="#00FCFD" stop-opacity="0.99"/>
<stop offset="0.51" stop-color="#02F4F7" stop-opacity="0.96"/>
<stop offset="0.6" stop-color="#05E7EE" stop-opacity="0.91"/>
<stop offset="0.68" stop-color="#0AD4E1" stop-opacity="0.83"/>
<stop offset="0.74" stop-color="#10BBCF" stop-opacity="0.74"/>
<stop offset="0.81" stop-color="#179CBA" stop-opacity="0.62"/>
<stop offset="0.86" stop-color="#2078A1" stop-opacity="0.47"/>
<stop offset="0.92" stop-color="#2A4E83" stop-opacity="0.31"/>
<stop offset="0.97" stop-color="#351F63" stop-opacity="0.13"/>
<stop offset="1" stop-color="#3D004D" stop-opacity="0"/>
</radialGradient>
<radialGradient id="paint2_radial_612_11" cx="0" cy="0" r="1" gradientTransform="matrix(-4.47351 4.72545 -4.98765 -4.11719 28.7751 239.928)" gradientUnits="userSpaceOnUse">
<stop offset="0.19" stop-color="#00FFFF"/>
<stop offset="0.4" stop-color="#00FCFD" stop-opacity="0.99"/>
<stop offset="0.51" stop-color="#02F4F7" stop-opacity="0.96"/>
<stop offset="0.6" stop-color="#05E7EE" stop-opacity="0.91"/>
<stop offset="0.68" stop-color="#0AD4E1" stop-opacity="0.83"/>
<stop offset="0.74" stop-color="#10BBCF" stop-opacity="0.74"/>
<stop offset="0.81" stop-color="#179CBA" stop-opacity="0.62"/>
<stop offset="0.86" stop-color="#2078A1" stop-opacity="0.47"/>
<stop offset="0.92" stop-color="#2A4E83" stop-opacity="0.31"/>
<stop offset="0.97" stop-color="#351F63" stop-opacity="0.13"/>
<stop offset="1" stop-color="#3D004D" stop-opacity="0"/>
</radialGradient>
<radialGradient id="paint3_radial_612_11" cx="0" cy="0" r="1" gradientTransform="matrix(-3.40429 3.59603 -3.79554 -3.13314 363.915 139.224)" gradientUnits="userSpaceOnUse">
<stop offset="0.19" stop-color="#00FFFF"/>
<stop offset="0.4" stop-color="#00FCFD" stop-opacity="0.99"/>
<stop offset="0.51" stop-color="#02F4F7" stop-opacity="0.96"/>
<stop offset="0.6" stop-color="#05E7EE" stop-opacity="0.91"/>
<stop offset="0.68" stop-color="#0AD4E1" stop-opacity="0.83"/>
<stop offset="0.74" stop-color="#10BBCF" stop-opacity="0.74"/>
<stop offset="0.81" stop-color="#179CBA" stop-opacity="0.62"/>
<stop offset="0.86" stop-color="#2078A1" stop-opacity="0.47"/>
<stop offset="0.92" stop-color="#2A4E83" stop-opacity="0.31"/>
<stop offset="0.97" stop-color="#351F63" stop-opacity="0.13"/>
<stop offset="1" stop-color="#3D004D" stop-opacity="0"/>
</radialGradient>
<radialGradient id="paint4_radial_612_11" cx="0" cy="0" r="1" gradientTransform="matrix(-1.76974 1.86941 -1.97314 -1.62878 387.528 381.954)" gradientUnits="userSpaceOnUse">
<stop offset="0.19" stop-color="#00FFFF"/>
<stop offset="0.4" stop-color="#00FCFD" stop-opacity="0.99"/>
<stop offset="0.51" stop-color="#02F4F7" stop-opacity="0.96"/>
<stop offset="0.6" stop-color="#05E7EE" stop-opacity="0.91"/>
<stop offset="0.68" stop-color="#0AD4E1" stop-opacity="0.83"/>
<stop offset="0.74" stop-color="#10BBCF" stop-opacity="0.74"/>
<stop offset="0.81" stop-color="#179CBA" stop-opacity="0.62"/>
<stop offset="0.86" stop-color="#2078A1" stop-opacity="0.47"/>
<stop offset="0.92" stop-color="#2A4E83" stop-opacity="0.31"/>
<stop offset="0.97" stop-color="#351F63" stop-opacity="0.13"/>
<stop offset="1" stop-color="#3D004D" stop-opacity="0"/>
</radialGradient>
<radialGradient id="paint5_radial_612_11" cx="0" cy="0" r="1" gradientTransform="matrix(-3.60093 3.80375 -4.01478 -3.31412 261.468 413.366)" gradientUnits="userSpaceOnUse">
<stop offset="0.19" stop-color="#00FFFF"/>
<stop offset="0.4" stop-color="#00FCFD" stop-opacity="0.99"/>
<stop offset="0.51" stop-color="#02F4F7" stop-opacity="0.96"/>
<stop offset="0.6" stop-color="#05E7EE" stop-opacity="0.91"/>
<stop offset="0.68" stop-color="#0AD4E1" stop-opacity="0.83"/>
<stop offset="0.74" stop-color="#10BBCF" stop-opacity="0.74"/>
<stop offset="0.81" stop-color="#179CBA" stop-opacity="0.62"/>
<stop offset="0.86" stop-color="#2078A1" stop-opacity="0.47"/>
<stop offset="0.92" stop-color="#2A4E83" stop-opacity="0.31"/>
<stop offset="0.97" stop-color="#351F63" stop-opacity="0.13"/>
<stop offset="1" stop-color="#3D004D" stop-opacity="0"/>
</radialGradient>
<radialGradient id="paint6_radial_612_11" cx="0" cy="0" r="1" gradientTransform="matrix(-3.72383 3.93357 -4.1518 -3.42723 188.733 543.621)" gradientUnits="userSpaceOnUse">
<stop offset="0.19" stop-color="#00FFFF"/>
<stop offset="0.4" stop-color="#00FCFD" stop-opacity="0.99"/>
<stop offset="0.51" stop-color="#02F4F7" stop-opacity="0.96"/>
<stop offset="0.6" stop-color="#05E7EE" stop-opacity="0.91"/>
<stop offset="0.68" stop-color="#0AD4E1" stop-opacity="0.83"/>
<stop offset="0.74" stop-color="#10BBCF" stop-opacity="0.74"/>
<stop offset="0.81" stop-color="#179CBA" stop-opacity="0.62"/>
<stop offset="0.86" stop-color="#2078A1" stop-opacity="0.47"/>
<stop offset="0.92" stop-color="#2A4E83" stop-opacity="0.31"/>
<stop offset="0.97" stop-color="#351F63" stop-opacity="0.13"/>
<stop offset="1" stop-color="#3D004D" stop-opacity="0"/>
</radialGradient>
<radialGradient id="paint7_radial_612_11" cx="0" cy="0" r="1" gradientTransform="matrix(-1.89264 1.99925 -2.11016 -1.7419 386.027 593.532)" gradientUnits="userSpaceOnUse">
<stop offset="0.19" stop-color="#00FFFF"/>
<stop offset="0.4" stop-color="#00FCFD" stop-opacity="0.99"/>
<stop offset="0.51" stop-color="#02F4F7" stop-opacity="0.96"/>
<stop offset="0.6" stop-color="#05E7EE" stop-opacity="0.91"/>
<stop offset="0.68" stop-color="#0AD4E1" stop-opacity="0.83"/>
<stop offset="0.74" stop-color="#10BBCF" stop-opacity="0.74"/>
<stop offset="0.81" stop-color="#179CBA" stop-opacity="0.62"/>
<stop offset="0.86" stop-color="#2078A1" stop-opacity="0.47"/>
<stop offset="0.92" stop-color="#2A4E83" stop-opacity="0.31"/>
<stop offset="0.97" stop-color="#351F63" stop-opacity="0.13"/>
<stop offset="1" stop-color="#3D004D" stop-opacity="0"/>
</radialGradient>
<radialGradient id="paint8_radial_612_11" cx="0" cy="0" r="1" gradientTransform="matrix(-4.37519 4.62161 -4.87802 -4.02671 436.601 781.394)" gradientUnits="userSpaceOnUse">
<stop offset="0.19" stop-color="#00FFFF"/>
<stop offset="0.4" stop-color="#00FCFD" stop-opacity="0.99"/>
<stop offset="0.51" stop-color="#02F4F7" stop-opacity="0.96"/>
<stop offset="0.6" stop-color="#05E7EE" stop-opacity="0.91"/>
<stop offset="0.68" stop-color="#0AD4E1" stop-opacity="0.83"/>
<stop offset="0.74" stop-color="#10BBCF" stop-opacity="0.74"/>
<stop offset="0.81" stop-color="#179CBA" stop-opacity="0.62"/>
<stop offset="0.86" stop-color="#2078A1" stop-opacity="0.47"/>
<stop offset="0.92" stop-color="#2A4E83" stop-opacity="0.31"/>
<stop offset="0.97" stop-color="#351F63" stop-opacity="0.13"/>
<stop offset="1" stop-color="#3D004D" stop-opacity="0"/>
</radialGradient>
<radialGradient id="paint9_radial_612_11" cx="0" cy="0" r="1" gradientTransform="matrix(-5.16195 5.45222 -5.7552 -4.75045 219.755 692.232)" gradientUnits="userSpaceOnUse">
<stop offset="0.19" stop-color="#00FFFF"/>
<stop offset="0.4" stop-color="#00FCFD" stop-opacity="0.99"/>
<stop offset="0.51" stop-color="#02F4F7" stop-opacity="0.96"/>
<stop offset="0.6" stop-color="#05E7EE" stop-opacity="0.91"/>
<stop offset="0.68" stop-color="#0AD4E1" stop-opacity="0.83"/>
<stop offset="0.74" stop-color="#10BBCF" stop-opacity="0.74"/>
<stop offset="0.81" stop-color="#179CBA" stop-opacity="0.62"/>
<stop offset="0.86" stop-color="#2078A1" stop-opacity="0.47"/>
<stop offset="0.92" stop-color="#2A4E83" stop-opacity="0.31"/>
<stop offset="0.97" stop-color="#351F63" stop-opacity="0.13"/>
<stop offset="1" stop-color="#3D004D" stop-opacity="0"/>
</radialGradient>
<radialGradient id="paint10_radial_612_11" cx="0" cy="0" r="1" gradientTransform="matrix(-3.57635 3.77779 -3.98737 -3.29151 265.248 773.894)" gradientUnits="userSpaceOnUse">
<stop offset="0.19" stop-color="#00FFFF"/>
<stop offset="0.4" stop-color="#00FCFD" stop-opacity="0.99"/>
<stop offset="0.51" stop-color="#02F4F7" stop-opacity="0.96"/>
<stop offset="0.6" stop-color="#05E7EE" stop-opacity="0.91"/>
<stop offset="0.68" stop-color="#0AD4E1" stop-opacity="0.83"/>
<stop offset="0.74" stop-color="#10BBCF" stop-opacity="0.74"/>
<stop offset="0.81" stop-color="#179CBA" stop-opacity="0.62"/>
<stop offset="0.86" stop-color="#2078A1" stop-opacity="0.47"/>
<stop offset="0.92" stop-color="#2A4E83" stop-opacity="0.31"/>
<stop offset="0.97" stop-color="#351F63" stop-opacity="0.13"/>
<stop offset="1" stop-color="#3D004D" stop-opacity="0"/>
</radialGradient>
<radialGradient id="paint11_radial_612_11" cx="0" cy="0" r="1" gradientTransform="matrix(-3.73612 3.94655 -4.1655 -3.43854 64.1331 443.413)" gradientUnits="userSpaceOnUse">
<stop offset="0.19" stop-color="#00FFFF"/>
<stop offset="0.4" stop-color="#00FCFD" stop-opacity="0.99"/>
<stop offset="0.51" stop-color="#02F4F7" stop-opacity="0.96"/>
<stop offset="0.6" stop-color="#05E7EE" stop-opacity="0.91"/>
<stop offset="0.68" stop-color="#0AD4E1" stop-opacity="0.83"/>
<stop offset="0.74" stop-color="#10BBCF" stop-opacity="0.74"/>
<stop offset="0.81" stop-color="#179CBA" stop-opacity="0.62"/>
<stop offset="0.86" stop-color="#2078A1" stop-opacity="0.47"/>
<stop offset="0.92" stop-color="#2A4E83" stop-opacity="0.31"/>
<stop offset="0.97" stop-color="#351F63" stop-opacity="0.13"/>
<stop offset="1" stop-color="#3D004D" stop-opacity="0"/>
</radialGradient>
<radialGradient id="paint12_radial_612_11" cx="0" cy="0" r="1" gradientTransform="matrix(-0.970901 1.02558 -1.08249 -0.893565 7.27752 794.995)" gradientUnits="userSpaceOnUse">
<stop offset="0.19" stop-color="#00FFFF"/>
<stop offset="0.4" stop-color="#00FCFD" stop-opacity="0.99"/>
<stop offset="0.51" stop-color="#02F4F7" stop-opacity="0.96"/>
<stop offset="0.6" stop-color="#05E7EE" stop-opacity="0.91"/>
<stop offset="0.68" stop-color="#0AD4E1" stop-opacity="0.83"/>
<stop offset="0.74" stop-color="#10BBCF" stop-opacity="0.74"/>
<stop offset="0.81" stop-color="#179CBA" stop-opacity="0.62"/>
<stop offset="0.86" stop-color="#2078A1" stop-opacity="0.47"/>
<stop offset="0.92" stop-color="#2A4E83" stop-opacity="0.31"/>
<stop offset="0.97" stop-color="#351F63" stop-opacity="0.13"/>
<stop offset="1" stop-color="#3D004D" stop-opacity="0"/>
</radialGradient>
<radialGradient id="paint13_radial_612_11" cx="0" cy="0" r="1" gradientTransform="matrix(-0.823422 0.8698 -0.918055 -0.757837 30.9203 783.407)" gradientUnits="userSpaceOnUse">
<stop offset="0.19" stop-color="#00FFFF"/>
<stop offset="0.4" stop-color="#00FCFD" stop-opacity="0.99"/>
<stop offset="0.51" stop-color="#02F4F7" stop-opacity="0.96"/>
<stop offset="0.6" stop-color="#05E7EE" stop-opacity="0.91"/>
<stop offset="0.68" stop-color="#0AD4E1" stop-opacity="0.83"/>
<stop offset="0.74" stop-color="#10BBCF" stop-opacity="0.74"/>
<stop offset="0.81" stop-color="#179CBA" stop-opacity="0.62"/>
<stop offset="0.86" stop-color="#2078A1" stop-opacity="0.47"/>
<stop offset="0.92" stop-color="#2A4E83" stop-opacity="0.31"/>
<stop offset="0.97" stop-color="#351F63" stop-opacity="0.13"/>
<stop offset="1" stop-color="#3D004D" stop-opacity="0"/>
</radialGradient>
<radialGradient id="paint14_radial_612_11" cx="0" cy="0" r="1" gradientTransform="matrix(-1.35188 1.42803 -1.50725 -1.24421 1.90093 434.629)" gradientUnits="userSpaceOnUse">
<stop offset="0.19" stop-color="#00FFFF"/>
<stop offset="0.4" stop-color="#00FCFD" stop-opacity="0.99"/>
<stop offset="0.51" stop-color="#02F4F7" stop-opacity="0.96"/>
<stop offset="0.6" stop-color="#05E7EE" stop-opacity="0.91"/>
<stop offset="0.68" stop-color="#0AD4E1" stop-opacity="0.83"/>
<stop offset="0.74" stop-color="#10BBCF" stop-opacity="0.74"/>
<stop offset="0.81" stop-color="#179CBA" stop-opacity="0.62"/>
<stop offset="0.86" stop-color="#2078A1" stop-opacity="0.47"/>
<stop offset="0.92" stop-color="#2A4E83" stop-opacity="0.31"/>
<stop offset="0.97" stop-color="#351F63" stop-opacity="0.13"/>
<stop offset="1" stop-color="#3D004D" stop-opacity="0"/>
</radialGradient>
<radialGradient id="paint15_radial_612_11" cx="0" cy="0" r="1" gradientTransform="matrix(-1.25377 1.32394 -1.39786 -1.15357 11.9713 525.442)" gradientUnits="userSpaceOnUse">
<stop offset="0.19" stop-color="#00FFFF"/>
<stop offset="0.4" stop-color="#00FCFD" stop-opacity="0.99"/>
<stop offset="0.51" stop-color="#02F4F7" stop-opacity="0.96"/>
<stop offset="0.6" stop-color="#05E7EE" stop-opacity="0.91"/>
<stop offset="0.68" stop-color="#0AD4E1" stop-opacity="0.83"/>
<stop offset="0.74" stop-color="#10BBCF" stop-opacity="0.74"/>
<stop offset="0.81" stop-color="#179CBA" stop-opacity="0.62"/>
<stop offset="0.86" stop-color="#2078A1" stop-opacity="0.47"/>
<stop offset="0.92" stop-color="#2A4E83" stop-opacity="0.31"/>
<stop offset="0.97" stop-color="#351F63" stop-opacity="0.13"/>
<stop offset="1" stop-color="#3D004D" stop-opacity="0"/>
</radialGradient>
<radialGradient id="paint16_radial_612_11" cx="0" cy="0" r="1" gradientTransform="matrix(-1.17983 1.2463 -1.31542 -1.08587 73.1628 558.948)" gradientUnits="userSpaceOnUse">
<stop offset="0.19" stop-color="#00FFFF"/>
<stop offset="0.4" stop-color="#00FCFD" stop-opacity="0.99"/>
<stop offset="0.51" stop-color="#02F4F7" stop-opacity="0.96"/>
<stop offset="0.6" stop-color="#05E7EE" stop-opacity="0.91"/>
<stop offset="0.68" stop-color="#0AD4E1" stop-opacity="0.83"/>
<stop offset="0.74" stop-color="#10BBCF" stop-opacity="0.74"/>
<stop offset="0.81" stop-color="#179CBA" stop-opacity="0.62"/>
<stop offset="0.86" stop-color="#2078A1" stop-opacity="0.47"/>
<stop offset="0.92" stop-color="#2A4E83" stop-opacity="0.31"/>
<stop offset="0.97" stop-color="#351F63" stop-opacity="0.13"/>
<stop offset="1" stop-color="#3D004D" stop-opacity="0"/>
</radialGradient>
<radialGradient id="paint17_radial_612_11" cx="0" cy="0" r="1" gradientTransform="matrix(-1.42563 1.50591 -1.58947 -1.31207 196.063 702.425)" gradientUnits="userSpaceOnUse">
<stop offset="0.19" stop-color="#00FFFF"/>
<stop offset="0.4" stop-color="#00FCFD" stop-opacity="0.99"/>
<stop offset="0.51" stop-color="#02F4F7" stop-opacity="0.96"/>
<stop offset="0.6" stop-color="#05E7EE" stop-opacity="0.91"/>
<stop offset="0.68" stop-color="#0AD4E1" stop-opacity="0.83"/>
<stop offset="0.74" stop-color="#10BBCF" stop-opacity="0.74"/>
<stop offset="0.81" stop-color="#179CBA" stop-opacity="0.62"/>
<stop offset="0.86" stop-color="#2078A1" stop-opacity="0.47"/>
<stop offset="0.92" stop-color="#2A4E83" stop-opacity="0.31"/>
<stop offset="0.97" stop-color="#351F63" stop-opacity="0.13"/>
<stop offset="1" stop-color="#3D004D" stop-opacity="0"/>
</radialGradient>
<radialGradient id="paint18_radial_612_11" cx="0" cy="0" r="1" gradientTransform="matrix(-1.24128 1.3112 -1.38393 -1.14242 215.215 743.95)" gradientUnits="userSpaceOnUse">
<stop offset="0.19" stop-color="#00FFFF"/>
<stop offset="0.4" stop-color="#00FCFD" stop-opacity="0.99"/>
<stop offset="0.51" stop-color="#02F4F7" stop-opacity="0.96"/>
<stop offset="0.6" stop-color="#05E7EE" stop-opacity="0.91"/>
<stop offset="0.68" stop-color="#0AD4E1" stop-opacity="0.83"/>
<stop offset="0.74" stop-color="#10BBCF" stop-opacity="0.74"/>
<stop offset="0.81" stop-color="#179CBA" stop-opacity="0.62"/>
<stop offset="0.86" stop-color="#2078A1" stop-opacity="0.47"/>
<stop offset="0.92" stop-color="#2A4E83" stop-opacity="0.31"/>
<stop offset="0.97" stop-color="#351F63" stop-opacity="0.13"/>
<stop offset="1" stop-color="#3D004D" stop-opacity="0"/>
</radialGradient>
<radialGradient id="paint19_radial_612_11" cx="0" cy="0" r="1" gradientTransform="matrix(-0.946318 0.999625 -1.05507 -0.87095 216.31 731.423)" gradientUnits="userSpaceOnUse">
<stop offset="0.19" stop-color="#00FFFF"/>
<stop offset="0.4" stop-color="#00FCFD" stop-opacity="0.99"/>
<stop offset="0.51" stop-color="#02F4F7" stop-opacity="0.96"/>
<stop offset="0.6" stop-color="#05E7EE" stop-opacity="0.91"/>
<stop offset="0.68" stop-color="#0AD4E1" stop-opacity="0.83"/>
<stop offset="0.74" stop-color="#10BBCF" stop-opacity="0.74"/>
<stop offset="0.81" stop-color="#179CBA" stop-opacity="0.62"/>
<stop offset="0.86" stop-color="#2078A1" stop-opacity="0.47"/>
<stop offset="0.92" stop-color="#2A4E83" stop-opacity="0.31"/>
<stop offset="0.97" stop-color="#351F63" stop-opacity="0.13"/>
<stop offset="1" stop-color="#3D004D" stop-opacity="0"/>
</radialGradient>
<radialGradient id="paint20_radial_612_11" cx="0" cy="0" r="1" gradientTransform="matrix(-1.0938 1.15541 -1.2195 -1.00668 298.289 571.332)" gradientUnits="userSpaceOnUse">
<stop offset="0.19" stop-color="#00FFFF"/>
<stop offset="0.4" stop-color="#00FCFD" stop-opacity="0.99"/>
<stop offset="0.51" stop-color="#02F4F7" stop-opacity="0.96"/>
<stop offset="0.6" stop-color="#05E7EE" stop-opacity="0.91"/>
<stop offset="0.68" stop-color="#0AD4E1" stop-opacity="0.83"/>
<stop offset="0.74" stop-color="#10BBCF" stop-opacity="0.74"/>
<stop offset="0.81" stop-color="#179CBA" stop-opacity="0.62"/>
<stop offset="0.86" stop-color="#2078A1" stop-opacity="0.47"/>
<stop offset="0.92" stop-color="#2A4E83" stop-opacity="0.31"/>
<stop offset="0.97" stop-color="#351F63" stop-opacity="0.13"/>
<stop offset="1" stop-color="#3D004D" stop-opacity="0"/>
</radialGradient>
<radialGradient id="paint21_radial_612_11" cx="0" cy="0" r="1" gradientTransform="matrix(-1.25337 1.32441 -1.39742 -1.15388 240.205 425.395)" gradientUnits="userSpaceOnUse">
<stop offset="0.19" stop-color="#00FFFF"/>
<stop offset="0.4" stop-color="#00FCFD" stop-opacity="0.99"/>
<stop offset="0.51" stop-color="#02F4F7" stop-opacity="0.96"/>
<stop offset="0.6" stop-color="#05E7EE" stop-opacity="0.91"/>
<stop offset="0.68" stop-color="#0AD4E1" stop-opacity="0.83"/>
<stop offset="0.74" stop-color="#10BBCF" stop-opacity="0.74"/>
<stop offset="0.81" stop-color="#179CBA" stop-opacity="0.62"/>
<stop offset="0.86" stop-color="#2078A1" stop-opacity="0.47"/>
<stop offset="0.92" stop-color="#2A4E83" stop-opacity="0.31"/>
<stop offset="0.97" stop-color="#351F63" stop-opacity="0.13"/>
<stop offset="1" stop-color="#3D004D" stop-opacity="0"/>
</radialGradient>
<radialGradient id="paint22_radial_612_11" cx="0" cy="0" r="1" gradientTransform="matrix(-1.05693 1.11645 -1.1784 -0.972743 288.685 340.539)" gradientUnits="userSpaceOnUse">
<stop offset="0.19" stop-color="#00FFFF"/>
<stop offset="0.4" stop-color="#00FCFD" stop-opacity="0.99"/>
<stop offset="0.51" stop-color="#02F4F7" stop-opacity="0.96"/>
<stop offset="0.6" stop-color="#05E7EE" stop-opacity="0.91"/>
<stop offset="0.68" stop-color="#0AD4E1" stop-opacity="0.83"/>
<stop offset="0.74" stop-color="#10BBCF" stop-opacity="0.74"/>
<stop offset="0.81" stop-color="#179CBA" stop-opacity="0.62"/>
<stop offset="0.86" stop-color="#2078A1" stop-opacity="0.47"/>
<stop offset="0.92" stop-color="#2A4E83" stop-opacity="0.31"/>
<stop offset="0.97" stop-color="#351F63" stop-opacity="0.13"/>
<stop offset="1" stop-color="#3D004D" stop-opacity="0"/>
</radialGradient>
<radialGradient id="paint23_radial_612_11" cx="0" cy="0" r="1" gradientTransform="matrix(-1.04463 1.10348 -1.16469 -0.961433 171.05 345.965)" gradientUnits="userSpaceOnUse">
<stop offset="0.19" stop-color="#00FFFF"/>
<stop offset="0.4" stop-color="#00FCFD" stop-opacity="0.99"/>
<stop offset="0.51" stop-color="#02F4F7" stop-opacity="0.96"/>
<stop offset="0.6" stop-color="#05E7EE" stop-opacity="0.91"/>
<stop offset="0.68" stop-color="#0AD4E1" stop-opacity="0.83"/>
<stop offset="0.74" stop-color="#10BBCF" stop-opacity="0.74"/>
<stop offset="0.81" stop-color="#179CBA" stop-opacity="0.62"/>
<stop offset="0.86" stop-color="#2078A1" stop-opacity="0.47"/>
<stop offset="0.92" stop-color="#2A4E83" stop-opacity="0.31"/>
<stop offset="0.97" stop-color="#351F63" stop-opacity="0.13"/>
<stop offset="1" stop-color="#3D004D" stop-opacity="0"/>
</radialGradient>
<radialGradient id="paint24_radial_612_11" cx="0" cy="0" r="1" gradientTransform="matrix(-1.47479 1.55785 -1.64428 -1.35732 22.6365 284.371)" gradientUnits="userSpaceOnUse">
<stop offset="0.19" stop-color="#00FFFF"/>
<stop offset="0.4" stop-color="#00FCFD" stop-opacity="0.99"/>
<stop offset="0.51" stop-color="#02F4F7" stop-opacity="0.96"/>
<stop offset="0.6" stop-color="#05E7EE" stop-opacity="0.91"/>
<stop offset="0.68" stop-color="#0AD4E1" stop-opacity="0.83"/>
<stop offset="0.74" stop-color="#10BBCF" stop-opacity="0.74"/>
<stop offset="0.81" stop-color="#179CBA" stop-opacity="0.62"/>
<stop offset="0.86" stop-color="#2078A1" stop-opacity="0.47"/>
<stop offset="0.92" stop-color="#2A4E83" stop-opacity="0.31"/>
<stop offset="0.97" stop-color="#351F63" stop-opacity="0.13"/>
<stop offset="1" stop-color="#3D004D" stop-opacity="0"/>
</radialGradient>
<radialGradient id="paint25_radial_612_11" cx="0" cy="0" r="1" gradientTransform="matrix(-1.68371 1.77856 -1.87721 -1.54962 8.08053 211.62)" gradientUnits="userSpaceOnUse">
<stop offset="0.19" stop-color="#00FFFF"/>
<stop offset="0.4" stop-color="#00FCFD" stop-opacity="0.99"/>
<stop offset="0.51" stop-color="#02F4F7" stop-opacity="0.96"/>
<stop offset="0.6" stop-color="#05E7EE" stop-opacity="0.91"/>
<stop offset="0.68" stop-color="#0AD4E1" stop-opacity="0.83"/>
<stop offset="0.74" stop-color="#10BBCF" stop-opacity="0.74"/>
<stop offset="0.81" stop-color="#179CBA" stop-opacity="0.62"/>
<stop offset="0.86" stop-color="#2078A1" stop-opacity="0.47"/>
<stop offset="0.92" stop-color="#2A4E83" stop-opacity="0.31"/>
<stop offset="0.97" stop-color="#351F63" stop-opacity="0.13"/>
<stop offset="1" stop-color="#3D004D" stop-opacity="0"/>
</radialGradient>
<radialGradient id="paint26_radial_612_11" cx="0" cy="0" r="1" gradientTransform="matrix(-1.76974 1.86942 -1.97313 -1.62879 117.425 213.295)" gradientUnits="userSpaceOnUse">
<stop offset="0.19" stop-color="#00FFFF"/>
<stop offset="0.4" stop-color="#00FCFD" stop-opacity="0.99"/>
<stop offset="0.51" stop-color="#02F4F7" stop-opacity="0.96"/>
<stop offset="0.6" stop-color="#05E7EE" stop-opacity="0.91"/>
<stop offset="0.68" stop-color="#0AD4E1" stop-opacity="0.83"/>
<stop offset="0.74" stop-color="#10BBCF" stop-opacity="0.74"/>
<stop offset="0.81" stop-color="#179CBA" stop-opacity="0.62"/>
<stop offset="0.86" stop-color="#2078A1" stop-opacity="0.47"/>
<stop offset="0.92" stop-color="#2A4E83" stop-opacity="0.31"/>
<stop offset="0.97" stop-color="#351F63" stop-opacity="0.13"/>
<stop offset="1" stop-color="#3D004D" stop-opacity="0"/>
</radialGradient>
<radialGradient id="paint27_radial_612_11" cx="0" cy="0" r="1" gradientTransform="matrix(-2.29821 2.42766 -2.56233 -2.11516 122.363 738.564)" gradientUnits="userSpaceOnUse">
<stop offset="0.19" stop-color="#00FFFF"/>
<stop offset="0.4" stop-color="#00FCFD" stop-opacity="0.99"/>
<stop offset="0.51" stop-color="#02F4F7" stop-opacity="0.96"/>
<stop offset="0.6" stop-color="#05E7EE" stop-opacity="0.91"/>
<stop offset="0.68" stop-color="#0AD4E1" stop-opacity="0.83"/>
<stop offset="0.74" stop-color="#10BBCF" stop-opacity="0.74"/>
<stop offset="0.81" stop-color="#179CBA" stop-opacity="0.62"/>
<stop offset="0.86" stop-color="#2078A1" stop-opacity="0.47"/>
<stop offset="0.92" stop-color="#2A4E83" stop-opacity="0.31"/>
<stop offset="0.97" stop-color="#351F63" stop-opacity="0.13"/>
<stop offset="1" stop-color="#3D004D" stop-opacity="0"/>
</radialGradient>
<radialGradient id="paint28_radial_612_11" cx="0" cy="0" r="1" gradientTransform="matrix(-1.13067 1.19435 -1.26061 -1.04061 62.6906 767.815)" gradientUnits="userSpaceOnUse">
<stop offset="0.19" stop-color="#00FFFF"/>
<stop offset="0.4" stop-color="#00FCFD" stop-opacity="0.99"/>
<stop offset="0.51" stop-color="#02F4F7" stop-opacity="0.96"/>
<stop offset="0.6" stop-color="#05E7EE" stop-opacity="0.91"/>
<stop offset="0.68" stop-color="#0AD4E1" stop-opacity="0.83"/>
<stop offset="0.74" stop-color="#10BBCF" stop-opacity="0.74"/>
<stop offset="0.81" stop-color="#179CBA" stop-opacity="0.62"/>
<stop offset="0.86" stop-color="#2078A1" stop-opacity="0.47"/>
<stop offset="0.92" stop-color="#2A4E83" stop-opacity="0.31"/>
<stop offset="0.97" stop-color="#351F63" stop-opacity="0.13"/>
<stop offset="1" stop-color="#3D004D" stop-opacity="0"/>
</radialGradient>
<radialGradient id="paint29_radial_612_11" cx="0" cy="0" r="1" gradientTransform="matrix(-0.88487 0.934713 -0.986565 -0.814394 138.727 818.211)" gradientUnits="userSpaceOnUse">
<stop offset="0.19" stop-color="#00FFFF"/>
<stop offset="0.4" stop-color="#00FCFD" stop-opacity="0.99"/>
<stop offset="0.51" stop-color="#02F4F7" stop-opacity="0.96"/>
<stop offset="0.6" stop-color="#05E7EE" stop-opacity="0.91"/>
<stop offset="0.68" stop-color="#0AD4E1" stop-opacity="0.83"/>
<stop offset="0.74" stop-color="#10BBCF" stop-opacity="0.74"/>
<stop offset="0.81" stop-color="#179CBA" stop-opacity="0.62"/>
<stop offset="0.86" stop-color="#2078A1" stop-opacity="0.47"/>
<stop offset="0.92" stop-color="#2A4E83" stop-opacity="0.31"/>
<stop offset="0.97" stop-color="#351F63" stop-opacity="0.13"/>
<stop offset="1" stop-color="#3D004D" stop-opacity="0"/>
</radialGradient>
<radialGradient id="paint30_radial_612_11" cx="0" cy="0" r="1" gradientTransform="matrix(-1.60997 1.70065 -1.795 -1.48174 122.185 836.69)" gradientUnits="userSpaceOnUse">
<stop offset="0.19" stop-color="#00FFFF"/>
<stop offset="0.4" stop-color="#00FCFD" stop-opacity="0.99"/>
<stop offset="0.51" stop-color="#02F4F7" stop-opacity="0.96"/>
<stop offset="0.6" stop-color="#05E7EE" stop-opacity="0.91"/>
<stop offset="0.68" stop-color="#0AD4E1" stop-opacity="0.83"/>
<stop offset="0.74" stop-color="#10BBCF" stop-opacity="0.74"/>
<stop offset="0.81" stop-color="#179CBA" stop-opacity="0.62"/>
<stop offset="0.86" stop-color="#2078A1" stop-opacity="0.47"/>
<stop offset="0.92" stop-color="#2A4E83" stop-opacity="0.31"/>
<stop offset="0.97" stop-color="#351F63" stop-opacity="0.13"/>
<stop offset="1" stop-color="#3D004D" stop-opacity="0"/>
</radialGradient>
<radialGradient id="paint31_radial_612_11" cx="0" cy="0" r="1" gradientTransform="matrix(-1.36417 1.44101 -1.52096 -1.25552 144.486 765.187)" gradientUnits="userSpaceOnUse">
<stop offset="0.19" stop-color="#00FFFF"/>
<stop offset="0.4" stop-color="#00FCFD" stop-opacity="0.99"/>
<stop offset="0.51" stop-color="#02F4F7" stop-opacity="0.96"/>
<stop offset="0.6" stop-color="#05E7EE" stop-opacity="0.91"/>
<stop offset="0.68" stop-color="#0AD4E1" stop-opacity="0.83"/>
<stop offset="0.74" stop-color="#10BBCF" stop-opacity="0.74"/>
<stop offset="0.81" stop-color="#179CBA" stop-opacity="0.62"/>
<stop offset="0.86" stop-color="#2078A1" stop-opacity="0.47"/>
<stop offset="0.92" stop-color="#2A4E83" stop-opacity="0.31"/>
<stop offset="0.97" stop-color="#351F63" stop-opacity="0.13"/>
<stop offset="1" stop-color="#3D004D" stop-opacity="0"/>
</radialGradient>
<radialGradient id="paint32_radial_612_11" cx="0" cy="0" r="1" gradientTransform="matrix(-1.79432 1.8954 -2.00053 -1.65141 352.24 802.052)" gradientUnits="userSpaceOnUse">
<stop offset="0.19" stop-color="#00FFFF"/>
<stop offset="0.4" stop-color="#00FCFD" stop-opacity="0.99"/>
<stop offset="0.51" stop-color="#02F4F7" stop-opacity="0.96"/>
<stop offset="0.6" stop-color="#05E7EE" stop-opacity="0.91"/>
<stop offset="0.68" stop-color="#0AD4E1" stop-opacity="0.83"/>
<stop offset="0.74" stop-color="#10BBCF" stop-opacity="0.74"/>
<stop offset="0.81" stop-color="#179CBA" stop-opacity="0.62"/>
<stop offset="0.86" stop-color="#2078A1" stop-opacity="0.47"/>
<stop offset="0.92" stop-color="#2A4E83" stop-opacity="0.31"/>
<stop offset="0.97" stop-color="#351F63" stop-opacity="0.13"/>
<stop offset="1" stop-color="#3D004D" stop-opacity="0"/>
</radialGradient>
<radialGradient id="paint33_radial_612_11" cx="0" cy="0" r="1" gradientTransform="matrix(-1.65913 1.75258 -1.84981 -1.52698 336.022 776.436)" gradientUnits="userSpaceOnUse">
<stop offset="0.19" stop-color="#00FFFF"/>
<stop offset="0.4" stop-color="#00FCFD" stop-opacity="0.99"/>
<stop offset="0.51" stop-color="#02F4F7" stop-opacity="0.96"/>
<stop offset="0.6" stop-color="#05E7EE" stop-opacity="0.91"/>
<stop offset="0.68" stop-color="#0AD4E1" stop-opacity="0.83"/>
<stop offset="0.74" stop-color="#10BBCF" stop-opacity="0.74"/>
<stop offset="0.81" stop-color="#179CBA" stop-opacity="0.62"/>
<stop offset="0.86" stop-color="#2078A1" stop-opacity="0.47"/>
<stop offset="0.92" stop-color="#2A4E83" stop-opacity="0.31"/>
<stop offset="0.97" stop-color="#351F63" stop-opacity="0.13"/>
<stop offset="1" stop-color="#3D004D" stop-opacity="0"/>
</radialGradient>
<radialGradient id="paint34_radial_612_11" cx="0" cy="0" r="1" gradientTransform="matrix(-2.10157 2.21993 -2.3431 -1.93418 303.783 724.844)" gradientUnits="userSpaceOnUse">
<stop offset="0.19" stop-color="#00FFFF"/>
<stop offset="0.4" stop-color="#00FCFD" stop-opacity="0.99"/>
<stop offset="0.51" stop-color="#02F4F7" stop-opacity="0.96"/>
<stop offset="0.6" stop-color="#05E7EE" stop-opacity="0.91"/>
<stop offset="0.68" stop-color="#0AD4E1" stop-opacity="0.83"/>
<stop offset="0.74" stop-color="#10BBCF" stop-opacity="0.74"/>
<stop offset="0.81" stop-color="#179CBA" stop-opacity="0.62"/>
<stop offset="0.86" stop-color="#2078A1" stop-opacity="0.47"/>
<stop offset="0.92" stop-color="#2A4E83" stop-opacity="0.31"/>
<stop offset="0.97" stop-color="#351F63" stop-opacity="0.13"/>
<stop offset="1" stop-color="#3D004D" stop-opacity="0"/>
</radialGradient>
<radialGradient id="paint35_radial_612_11" cx="0" cy="0" r="1" gradientTransform="matrix(-1.696 1.79153 -1.89092 -1.56092 255.695 649.464)" gradientUnits="userSpaceOnUse">
<stop offset="0.19" stop-color="#00FFFF"/>
<stop offset="0.4" stop-color="#00FCFD" stop-opacity="0.99"/>
<stop offset="0.51" stop-color="#02F4F7" stop-opacity="0.96"/>
<stop offset="0.6" stop-color="#05E7EE" stop-opacity="0.91"/>
<stop offset="0.68" stop-color="#0AD4E1" stop-opacity="0.83"/>
<stop offset="0.74" stop-color="#10BBCF" stop-opacity="0.74"/>
<stop offset="0.81" stop-color="#179CBA" stop-opacity="0.62"/>
<stop offset="0.86" stop-color="#2078A1" stop-opacity="0.47"/>
<stop offset="0.92" stop-color="#2A4E83" stop-opacity="0.31"/>
<stop offset="0.97" stop-color="#351F63" stop-opacity="0.13"/>
<stop offset="1" stop-color="#3D004D" stop-opacity="0"/>
</radialGradient>
<radialGradient id="paint36_radial_612_11" cx="0" cy="0" r="1" gradientTransform="matrix(-1.13067 1.19437 -1.26061 -1.04062 225.11 601.103)" gradientUnits="userSpaceOnUse">
<stop offset="0.19" stop-color="#00FFFF"/>
<stop offset="0.4" stop-color="#00FCFD" stop-opacity="0.99"/>
<stop offset="0.51" stop-color="#02F4F7" stop-opacity="0.96"/>
<stop offset="0.6" stop-color="#05E7EE" stop-opacity="0.91"/>
<stop offset="0.68" stop-color="#0AD4E1" stop-opacity="0.83"/>
<stop offset="0.74" stop-color="#10BBCF" stop-opacity="0.74"/>
<stop offset="0.81" stop-color="#179CBA" stop-opacity="0.62"/>
<stop offset="0.86" stop-color="#2078A1" stop-opacity="0.47"/>
<stop offset="0.92" stop-color="#2A4E83" stop-opacity="0.31"/>
<stop offset="0.97" stop-color="#351F63" stop-opacity="0.13"/>
<stop offset="1" stop-color="#3D004D" stop-opacity="0"/>
</radialGradient>
</defs>
</svg>
