<svg width="1260" height="906" viewBox="0 0 1260 906" fill="none" xmlns="http://www.w3.org/2000/svg">
<path d="M1826.68 -271.518L1650.24 -113.071L1453.69 -100.085L1479.32 -307.316L1480.08 -307.549L1417.97 -412.301L1420.7 -422.652L1415.41 -413.081L1269.11 -345.641L1282.45 -414.928L1289.09 -421.649L1280.81 -416.876L1117.62 -439.201L1117.54 -439.2L288.335 -555.631L284.511 -562.137L285.372 -557.631L277.467 -563.444L286.078 -553.909L370.193 -115.805L368.711 -113.364L581.626 -174.876L707.872 -86.7416L706.164 -85.7606L708.093 -85.5739L611.837 77.9649L469.915 46.6375L469.236 49.1384L610.454 80.313L554.933 174.646L549.776 179.145L740.093 108.922L1037.97 174.65L800.717 303.386L802.159 305.594L1040.89 176.064L1109.08 360.881L1022.38 503.757L1302.67 709.789L1303.83 711.856L1516.19 315.691L1921.91 380.181L1924.06 380.529L1838.21 63.4774L1839.34 62.5978L1837.82 62.0564L1837.44 60.6719L1836.33 61.5328L1714.86 18.5078L1715.14 18.1004L1713.13 17.8785L1712.18 17.5469L1712.04 17.7506L1500.16 -5.33489L1655.51 -113.472L1654.61 -113.402L1828.68 -269.722L1826.7 -271.573L1826.68 -271.518ZM1450.79 -99.6882L1375.55 -80.2825L1475.5 -299.399L1450.79 -99.6882ZM1372.05 -79.399L1326.82 -67.7359L1382.82 -279.476L1475.53 -306.227L1372.03 -79.3804L1372.05 -79.399ZM1043.26 174.376L1205.18 -29.9113L1110.35 356.265L1043.26 174.376ZM725.381 29.1867L851.974 64.8393L739.865 106.198L657.949 88.1227L725.361 29.1687L725.381 29.1867ZM726.321 26.7363L712.275 -82.6802L851.826 62.078L726.321 26.7363ZM1190.5 -325.958L1124.49 -323.75L1273.15 -409.424L1190.5 -325.994L1190.5 -325.958ZM1189.83 -323.347L1190.63 -309.45L1041.99 -240.945L1022.37 -264.899L1119.72 -320.997L1189.83 -323.347ZM1379.71 -278.544L1323.73 -66.9326L1210.84 -37.8235L1337.35 -266.326L1379.71 -278.544ZM1339.14 -269.541L1412.24 -401.569L1380.48 -281.467L1339.14 -269.541ZM935.242 -188.842L922.693 -149.312L726.643 -92.718L935.222 -188.86L935.242 -188.842ZM736.184 -99.9827L945.281 -220.459L936.306 -192.228L736.184 -99.9827ZM938.685 -190.42L1041.12 -237.636L1076.97 -193.826L925.927 -150.209L938.685 -190.42ZM939.769 -193.825L948.875 -222.552L1019.95 -263.503L1039.38 -239.748L939.728 -193.824L939.769 -193.825ZM950.074 -226.288L978.118 -314.642L1018.25 -265.579L950.074 -226.288ZM946.459 -224.213L721.832 -94.7957L974.731 -313.303L946.459 -224.213ZM921.723 -146.312L897.139 -68.8523L717.15 -87.2478L921.723 -146.312ZM924.956 -147.246L1078.73 -191.659L1204.97 -37.4121L1204.81 -37.4459L899.992 -68.5716L924.976 -147.264L924.956 -147.246ZM1081.61 -192.477L1195.55 -225.375L1206.43 -39.9446L1081.63 -192.459L1081.61 -192.477ZM1290.17 59.8433L1266.11 150.838L1211.3 -30.034L1290.17 59.8433ZM1292.41 62.386L1302.25 73.5844L1271.78 140.382L1292.41 62.386ZM1304.26 75.8929L1332.56 108.154L1269.52 152.043L1304.26 75.8929ZM1211.35 -34.0983L1312.11 -23.1169L1291.02 56.6623L1211.37 -34.0803L1211.35 -34.0983ZM1215.28 -36.2887L1322.91 -64.045L1312.77 -25.6724L1215.28 -36.2887ZM1211.11 -44.1429L1248.94 -240.801L1333.54 -265.217L1211.13 -44.1249L1211.11 -44.1429ZM1208.81 -47.142L1198.33 -226.173L1245.91 -239.908L1208.85 -47.1427L1208.81 -47.142ZM1198.16 -228.842L1193.51 -307.889L1265.32 -340.982L1246.46 -242.772L1198.18 -228.824L1198.16 -228.842ZM1195.36 -228.026L1079.79 -194.661L1043.65 -238.832L1190.74 -306.615L1195.36 -228.026ZM1020.65 -266.956L980.296 -316.29L1114.07 -320.79L1020.67 -266.975L1020.65 -266.956ZM712.603 -90.355L741.424 -221.479L887.259 -416.414L975.579 -317.564L712.583 -90.3363L712.603 -90.355ZM739.798 -223.886L293.317 -551.781L884.868 -417.801L739.817 -223.905L739.798 -223.886ZM737.154 -222.505L619.939 -188.636L297.359 -545.444L737.134 -222.486L737.154 -222.505ZM738.239 -220.107L709.528 -89.5337L621.882 -186.491L738.239 -220.107ZM713.78 -84.9572L896.321 -66.2942L855.577 62.1054L713.8 -84.9393L713.78 -84.9572ZM899.175 -66.0135L1201.22 -35.1333L858.297 62.7728L899.175 -66.0135ZM1208.22 -30.4025L1264.69 155.933L1262.86 159.973L1265.39 158.209L1266.31 161.176L1267.48 156.764L1334.38 110.192L1504.15 303.597L1512.7 313.335L1112.47 359.579L1208.26 -30.4032L1208.22 -30.4025ZM1305.51 73.1809L1347.67 -19.2398L1492.85 -3.41624L1334.82 106.578L1305.49 73.1629L1305.51 73.1809ZM1303.49 70.8909L1298.96 65.7516L1293.23 59.2237L1314.93 -22.7989L1344.73 -19.5557L1303.47 70.8729L1303.49 70.8909ZM1315.61 -25.3364L1326.05 -64.8125L1370.64 -76.3183L1345.87 -22.0462L1315.61 -25.3364ZM1475.94 -309.034L1383.59 -282.362L1416.95 -408.476L1475.94 -308.997L1475.94 -309.034ZM1413.23 -409.163L1335.31 -268.451L1249.49 -243.666L1268.49 -342.445L1413.23 -409.163ZM1265.93 -344.159L1193.34 -310.704L1192.54 -324.199L1278.82 -411.315L1265.91 -344.177L1265.93 -344.159ZM1118.82 -323.525L981.213 -318.905L1117.85 -436.515L1277.07 -414.726L1118.78 -323.525L1118.82 -323.525ZM1114.33 -437.022L977.713 -319.431L976.955 -320.352L976.897 -320.222L887.063 -420.767L886.533 -420.08L318.141 -548.819L1114.33 -437.022ZM290.335 -546.77L458.762 -261.184L372.397 -119.412L290.335 -546.77ZM374.632 -117.803L460.802 -259.242L578.864 -176.806L374.632 -117.803ZM461.476 -262.035L295.508 -543.472L617.025 -187.818L582.178 -177.741L461.476 -262.035ZM618.968 -185.673L701.336 -94.5554L584.919 -175.829L618.968 -185.673ZM709.431 -82.412L723.502 27.242L654.687 87.4097L614.676 78.5936L709.431 -82.412ZM613.293 80.9418L652.258 89.5561L561.572 168.858L613.313 80.9598L613.293 80.9418ZM562.364 171.719L655.52 90.2691L735.361 107.886L562.384 171.7L562.364 171.719ZM856.667 65.9123L1204.44 -33.3763L1041.11 172.693L744.617 107.252L856.686 65.8936L856.667 65.9123ZM1025.98 503.146L1110.54 363.822L1299.52 704.205L1025.98 503.146ZM1112.76 362.1L1512.61 315.917L1509.48 320.583L1511.06 319.348L1303.75 706.092L1112.76 362.1ZM1920.19 377.337L1518.52 313.491L1835.73 65.405L1920.19 377.337ZM1713.3 20.8042L1833.82 63.4976L1702.24 166.396L1521.15 308.029L1574.27 228.618L1713.28 20.8228L1713.3 20.8042ZM1710.34 20.2507L1572.15 226.823L1515.15 312.03L1336.54 108.562L1496.85 -3.02706L1710.36 20.232L1710.34 20.2507ZM1496.04 -5.68555L1348.75 -21.7476L1374.05 -77.2368L1452.25 -97.3886L1646.14 -110.2L1496.02 -5.70346L1496.04 -5.68555Z" fill="url(#paint0_linear_612_935)"/>
<g style="mix-blend-mode:screen" filter="url(#filter0_d_612_935)">
<path d="M1026.43 500.338C1028.31 501.459 1028.86 503.775 1027.62 505.498C1026.39 507.221 1023.85 507.722 1021.97 506.601C1020.08 505.48 1019.54 503.165 1020.77 501.442C1022.01 499.718 1024.54 499.217 1026.43 500.338Z" fill="url(#paint1_radial_612_935)"/>
<path d="M1115.15 354.701C1119.01 356.978 1120.11 361.663 1117.6 365.184C1115.1 368.704 1109.96 369.725 1106.11 367.448C1102.26 365.171 1101.15 360.486 1103.66 356.966C1106.17 353.445 1111.3 352.424 1115.15 354.701Z" fill="url(#paint2_radial_612_935)"/>
<path d="M1046.35 167.588C1050.33 169.936 1051.45 174.786 1048.87 178.417C1046.29 182.049 1040.97 183.092 1037 180.743C1033.02 178.395 1031.9 173.546 1034.48 169.914C1037.06 166.282 1042.38 165.24 1046.35 167.588Z" fill="url(#paint3_radial_612_935)"/>
<path d="M803.807 301.174C805.814 302.366 806.399 304.827 805.087 306.661C803.775 308.496 801.076 309.036 799.07 307.844C797.063 306.652 796.478 304.191 797.79 302.356C799.102 300.522 801.801 299.982 803.807 301.174Z" fill="url(#paint4_radial_612_935)"/>
<path d="M472.198 44.1825C474.448 45.5168 475.098 48.2513 473.629 50.308C472.161 52.3648 469.162 52.9651 466.913 51.6308C464.663 50.2965 464.013 47.562 465.482 45.5053C466.95 43.4485 469.949 42.8481 472.198 44.1825Z" fill="url(#paint5_radial_612_935)"/>
<path d="M559.849 166.655C564.53 169.412 565.854 175.119 562.819 179.399C559.785 183.678 553.528 184.902 548.846 182.145C544.164 179.388 542.841 173.681 545.875 169.401C548.91 165.121 555.167 163.898 559.849 166.655Z" fill="url(#paint6_radial_612_935)"/>
<path d="M861.233 54.047C866.766 57.302 868.328 64.0476 864.725 69.0877C861.143 74.1458 853.746 75.59 848.233 72.3163C842.7 69.0613 841.138 62.3157 844.741 57.2756C848.344 52.2355 855.72 50.7733 861.233 54.047Z" fill="url(#paint7_radial_612_935)"/>
<path d="M729.499 21.4291C733.329 23.6882 734.393 28.3374 731.927 31.8206C729.44 35.3225 724.342 36.3064 720.532 34.0652C716.702 31.8061 715.638 27.1569 718.104 23.6737C720.591 20.1719 725.688 19.1879 729.499 21.4291Z" fill="url(#paint8_radial_612_935)"/>
<path d="M1270.88 149.384C1274.87 151.751 1276.02 156.618 1273.41 160.268C1270.81 163.919 1265.47 164.98 1261.48 162.614C1257.49 160.247 1256.34 155.38 1258.94 151.73C1261.55 148.08 1266.88 147.018 1270.88 149.384Z" fill="url(#paint9_radial_612_935)"/>
<path d="M1228.21 30.0239C1229.77 29.7044 1231.31 30.6298 1231.64 32.0337C1231.96 33.4375 1230.97 34.8639 1229.43 35.1647C1227.87 35.4842 1226.33 34.5588 1226 33.1549C1225.66 31.7332 1226.67 30.3247 1228.21 30.0239Z" fill="url(#paint10_radial_612_935)"/>
<path d="M1134.63 53.7698C1136.09 53.4703 1137.53 54.3426 1137.85 55.6732C1138.18 57.0038 1137.22 58.3198 1135.76 58.6193C1134.3 58.9187 1132.86 58.0464 1132.54 56.7158C1132.21 55.3852 1133.17 54.0692 1134.63 53.7698Z" fill="url(#paint11_radial_612_935)"/>
<path d="M865.779 29.4791C867.558 29.1375 869.301 30.1693 869.69 31.7734C870.06 33.3961 868.924 34.9896 867.165 35.3491C865.386 35.6907 863.643 34.6589 863.254 33.0548C862.884 31.4321 864.02 29.8386 865.779 29.4791Z" fill="url(#paint12_radial_612_935)"/>
<path d="M803.687 8.26439C805.226 7.96355 806.747 8.87105 807.072 10.2749C807.397 11.6787 806.399 13.0685 804.859 13.3694C803.32 13.6702 801.8 12.7627 801.474 11.3589C801.149 9.95505 802.148 8.56524 803.687 8.26439Z" fill="url(#paint13_radial_612_935)"/>
<path d="M816.035 21.5617C817.215 21.3402 818.35 22.0163 818.609 23.0735C818.849 24.1493 818.104 25.187 816.945 25.4265C815.766 25.648 814.63 24.9718 814.371 23.9147C814.132 22.8388 814.876 21.8011 816.035 21.5617Z" fill="url(#paint14_radial_612_935)"/>
<path d="M907.742 244.286C909.122 244.025 910.459 244.807 910.742 246.065C911.025 247.324 910.164 248.546 908.784 248.808C907.405 249.069 906.067 248.287 905.784 247.029C905.502 245.771 906.363 244.548 907.742 244.286Z" fill="url(#paint15_radial_612_935)"/>
<path d="M1117.48 328.176C1119.04 327.857 1120.58 328.782 1120.9 330.186C1121.25 331.608 1120.23 333.016 1118.69 333.317C1117.15 333.618 1115.59 332.711 1115.27 331.307C1114.92 329.885 1115.94 328.477 1117.48 328.176Z" fill="url(#paint16_radial_612_935)"/>
<path d="M1161.43 451.34C1162.73 451.08 1164.05 451.845 1164.31 453.048C1164.59 454.233 1163.75 455.437 1162.43 455.679C1161.13 455.939 1159.81 455.175 1159.55 453.971C1159.27 452.786 1160.11 451.582 1161.43 451.34Z" fill="url(#paint17_radial_612_935)"/>
<path d="M611.719 75.7707C613.957 75.3298 616.167 76.6283 616.623 78.6522C617.1 80.694 615.671 82.7135 613.452 83.1358C611.213 83.5767 609.004 82.2782 608.547 80.2543C608.07 78.2125 609.499 76.193 611.719 75.7707Z" fill="url(#paint18_radial_612_935)"/>
<path d="M654.332 85.4392C656.411 85.0377 658.418 86.2297 658.872 88.1072C659.306 90.0034 657.994 91.8378 655.935 92.2573C653.856 92.6589 651.85 91.4669 651.396 89.5894C650.961 87.6932 652.273 85.8588 654.332 85.4392Z" fill="url(#paint19_radial_612_935)"/>
<path d="M739.401 103.772C742.02 103.27 744.594 104.782 745.137 107.17C745.68 109.559 744.016 111.911 741.397 112.414C738.778 112.916 736.205 111.404 735.661 109.016C735.118 106.627 736.782 104.274 739.401 103.772Z" fill="url(#paint20_radial_612_935)"/>
<path d="M865.141 131.898C867.239 131.478 869.327 132.706 869.762 134.638C870.217 136.552 868.866 138.461 866.747 138.863C864.648 139.283 862.56 138.056 862.125 136.123C861.671 134.209 863.021 132.301 865.141 131.898Z" fill="url(#paint21_radial_612_935)"/>
<path d="M945.686 150.785C947.085 150.504 948.464 151.323 948.767 152.599C949.07 153.875 948.169 155.135 946.77 155.415C945.371 155.695 943.992 154.877 943.689 153.601C943.386 152.325 944.287 151.065 945.686 150.785Z" fill="url(#paint22_radial_612_935)"/>
</g>
<defs>
<filter id="filter0_d_612_935" x="274.951" y="-566.34" width="1656.28" height="1288.5" filterUnits="userSpaceOnUse" color-interpolation-filters="sRGB">
<feFlood flood-opacity="0" result="BackgroundImageFix"/>
<feColorMatrix in="SourceAlpha" type="matrix" values="0 0 0 0 0 0 0 0 0 0 0 0 0 0 0 0 0 0 127 0" result="hardAlpha"/>
<feOffset/>
<feGaussianBlur stdDeviation="3"/>
<feColorMatrix type="matrix" values="0 0 0 0 0 0 0 0 0 0.94902 0 0 0 0 1 0 0 0 0.7 0"/>
<feBlend mode="normal" in2="BackgroundImageFix" result="effect1_dropShadow_612_935"/>
<feBlend mode="normal" in="SourceGraphic" in2="effect1_dropShadow_612_935" result="shape"/>
</filter>
<linearGradient id="paint0_linear_612_935" x1="1271.83" y1="-457.869" x2="1040.09" y2="141.428" gradientUnits="userSpaceOnUse">
<stop stop-color="#0085E6"/>
<stop offset="0.13" stop-color="#007FDE" stop-opacity="0.96"/>
<stop offset="0.38" stop-color="#0071CA" stop-opacity="0.84"/>
<stop offset="0.72" stop-color="#005BA9" stop-opacity="0.66"/>
<stop offset="1" stop-color="#00478C" stop-opacity="0.49"/>
</linearGradient>
<radialGradient id="paint1_radial_612_935" cx="0" cy="0" r="1" gradientTransform="matrix(-0.848651 -3.64347 3.99509 -0.784591 1024.41 503.663)" gradientUnits="userSpaceOnUse">
<stop offset="0.19" stop-color="#00FFFF"/>
<stop offset="0.4" stop-color="#00FCFD" stop-opacity="0.99"/>
<stop offset="0.51" stop-color="#02F4F7" stop-opacity="0.96"/>
<stop offset="0.6" stop-color="#05E7EE" stop-opacity="0.91"/>
<stop offset="0.68" stop-color="#0AD4E1" stop-opacity="0.83"/>
<stop offset="0.74" stop-color="#10BBCF" stop-opacity="0.74"/>
<stop offset="0.81" stop-color="#179CBA" stop-opacity="0.62"/>
<stop offset="0.86" stop-color="#2078A1" stop-opacity="0.47"/>
<stop offset="0.92" stop-color="#2A4E83" stop-opacity="0.31"/>
<stop offset="0.97" stop-color="#351F63" stop-opacity="0.13"/>
<stop offset="1" stop-color="#3D004D" stop-opacity="0"/>
</radialGradient>
<radialGradient id="paint2_radial_612_935" cx="0" cy="0" r="1" gradientTransform="matrix(-1.72679 -7.41346 8.12891 -1.59641 1110.83 361.248)" gradientUnits="userSpaceOnUse">
<stop offset="0.19" stop-color="#00FFFF"/>
<stop offset="0.4" stop-color="#00FCFD" stop-opacity="0.99"/>
<stop offset="0.51" stop-color="#02F4F7" stop-opacity="0.96"/>
<stop offset="0.6" stop-color="#05E7EE" stop-opacity="0.91"/>
<stop offset="0.68" stop-color="#0AD4E1" stop-opacity="0.83"/>
<stop offset="0.74" stop-color="#10BBCF" stop-opacity="0.74"/>
<stop offset="0.81" stop-color="#179CBA" stop-opacity="0.62"/>
<stop offset="0.86" stop-color="#2078A1" stop-opacity="0.47"/>
<stop offset="0.92" stop-color="#2A4E83" stop-opacity="0.31"/>
<stop offset="0.97" stop-color="#351F63" stop-opacity="0.13"/>
<stop offset="1" stop-color="#3D004D" stop-opacity="0"/>
</radialGradient>
<radialGradient id="paint3_radial_612_935" cx="0" cy="0" r="1" gradientTransform="matrix(-1.78573 -7.66648 8.40635 -1.65089 1041.89 174.359)" gradientUnits="userSpaceOnUse">
<stop offset="0.19" stop-color="#00FFFF"/>
<stop offset="0.4" stop-color="#00FCFD" stop-opacity="0.99"/>
<stop offset="0.51" stop-color="#02F4F7" stop-opacity="0.96"/>
<stop offset="0.6" stop-color="#05E7EE" stop-opacity="0.91"/>
<stop offset="0.68" stop-color="#0AD4E1" stop-opacity="0.83"/>
<stop offset="0.74" stop-color="#10BBCF" stop-opacity="0.74"/>
<stop offset="0.81" stop-color="#179CBA" stop-opacity="0.62"/>
<stop offset="0.86" stop-color="#2078A1" stop-opacity="0.47"/>
<stop offset="0.92" stop-color="#2A4E83" stop-opacity="0.31"/>
<stop offset="0.97" stop-color="#351F63" stop-opacity="0.13"/>
<stop offset="1" stop-color="#3D004D" stop-opacity="0"/>
</radialGradient>
<radialGradient id="paint4_radial_612_935" cx="0" cy="0" r="1" gradientTransform="matrix(-0.907605 -3.8965 4.27254 -0.839064 801.65 304.726)" gradientUnits="userSpaceOnUse">
<stop offset="0.19" stop-color="#00FFFF"/>
<stop offset="0.4" stop-color="#00FCFD" stop-opacity="0.99"/>
<stop offset="0.51" stop-color="#02F4F7" stop-opacity="0.96"/>
<stop offset="0.6" stop-color="#05E7EE" stop-opacity="0.91"/>
<stop offset="0.68" stop-color="#0AD4E1" stop-opacity="0.83"/>
<stop offset="0.74" stop-color="#10BBCF" stop-opacity="0.74"/>
<stop offset="0.81" stop-color="#179CBA" stop-opacity="0.62"/>
<stop offset="0.86" stop-color="#2078A1" stop-opacity="0.47"/>
<stop offset="0.92" stop-color="#2A4E83" stop-opacity="0.31"/>
<stop offset="0.97" stop-color="#351F63" stop-opacity="0.13"/>
<stop offset="1" stop-color="#3D004D" stop-opacity="0"/>
</radialGradient>
<radialGradient id="paint5_radial_612_935" cx="0" cy="0" r="1" gradientTransform="matrix(-1.00779 -4.32663 4.74418 -0.931692 469.77 48.1312)" gradientUnits="userSpaceOnUse">
<stop offset="0.19" stop-color="#00FFFF"/>
<stop offset="0.4" stop-color="#00FCFD" stop-opacity="0.99"/>
<stop offset="0.51" stop-color="#02F4F7" stop-opacity="0.96"/>
<stop offset="0.6" stop-color="#05E7EE" stop-opacity="0.91"/>
<stop offset="0.68" stop-color="#0AD4E1" stop-opacity="0.83"/>
<stop offset="0.74" stop-color="#10BBCF" stop-opacity="0.74"/>
<stop offset="0.81" stop-color="#179CBA" stop-opacity="0.62"/>
<stop offset="0.86" stop-color="#2078A1" stop-opacity="0.47"/>
<stop offset="0.92" stop-color="#2A4E83" stop-opacity="0.31"/>
<stop offset="0.97" stop-color="#351F63" stop-opacity="0.13"/>
<stop offset="1" stop-color="#3D004D" stop-opacity="0"/>
</radialGradient>
<radialGradient id="paint6_radial_612_935" cx="0" cy="0" r="1" gradientTransform="matrix(-2.09808 -9.00747 9.87676 -1.93967 554.568 174.65)" gradientUnits="userSpaceOnUse">
<stop offset="0.19" stop-color="#00FFFF"/>
<stop offset="0.4" stop-color="#00FCFD" stop-opacity="0.99"/>
<stop offset="0.51" stop-color="#02F4F7" stop-opacity="0.96"/>
<stop offset="0.6" stop-color="#05E7EE" stop-opacity="0.91"/>
<stop offset="0.68" stop-color="#0AD4E1" stop-opacity="0.83"/>
<stop offset="0.74" stop-color="#10BBCF" stop-opacity="0.74"/>
<stop offset="0.81" stop-color="#179CBA" stop-opacity="0.62"/>
<stop offset="0.86" stop-color="#2078A1" stop-opacity="0.47"/>
<stop offset="0.92" stop-color="#2A4E83" stop-opacity="0.31"/>
<stop offset="0.97" stop-color="#351F63" stop-opacity="0.13"/>
<stop offset="1" stop-color="#3D004D" stop-opacity="0"/>
</radialGradient>
<radialGradient id="paint7_radial_612_935" cx="0" cy="0" r="1" gradientTransform="matrix(-2.47527 -10.6268 11.6524 -2.28837 854.961 63.3992)" gradientUnits="userSpaceOnUse">
<stop offset="0.19" stop-color="#00FFFF"/>
<stop offset="0.4" stop-color="#00FCFD" stop-opacity="0.99"/>
<stop offset="0.51" stop-color="#02F4F7" stop-opacity="0.96"/>
<stop offset="0.6" stop-color="#05E7EE" stop-opacity="0.91"/>
<stop offset="0.68" stop-color="#0AD4E1" stop-opacity="0.83"/>
<stop offset="0.74" stop-color="#10BBCF" stop-opacity="0.74"/>
<stop offset="0.81" stop-color="#179CBA" stop-opacity="0.62"/>
<stop offset="0.86" stop-color="#2078A1" stop-opacity="0.47"/>
<stop offset="0.92" stop-color="#2A4E83" stop-opacity="0.31"/>
<stop offset="0.97" stop-color="#351F63" stop-opacity="0.13"/>
<stop offset="1" stop-color="#3D004D" stop-opacity="0"/>
</radialGradient>
<radialGradient id="paint8_radial_612_935" cx="0" cy="0" r="1" gradientTransform="matrix(-1.71502 -7.36286 8.07342 -1.5855 725.226 27.9418)" gradientUnits="userSpaceOnUse">
<stop offset="0.19" stop-color="#00FFFF"/>
<stop offset="0.4" stop-color="#00FCFD" stop-opacity="0.99"/>
<stop offset="0.51" stop-color="#02F4F7" stop-opacity="0.96"/>
<stop offset="0.6" stop-color="#05E7EE" stop-opacity="0.91"/>
<stop offset="0.68" stop-color="#0AD4E1" stop-opacity="0.83"/>
<stop offset="0.74" stop-color="#10BBCF" stop-opacity="0.74"/>
<stop offset="0.81" stop-color="#179CBA" stop-opacity="0.62"/>
<stop offset="0.86" stop-color="#2078A1" stop-opacity="0.47"/>
<stop offset="0.92" stop-color="#2A4E83" stop-opacity="0.31"/>
<stop offset="0.97" stop-color="#351F63" stop-opacity="0.13"/>
<stop offset="1" stop-color="#3D004D" stop-opacity="0"/>
</radialGradient>
<radialGradient id="paint9_radial_612_935" cx="0" cy="0" r="1" gradientTransform="matrix(-1.79162 -7.69178 8.43409 -1.65634 1266.39 156.174)" gradientUnits="userSpaceOnUse">
<stop offset="0.19" stop-color="#00FFFF"/>
<stop offset="0.4" stop-color="#00FCFD" stop-opacity="0.99"/>
<stop offset="0.51" stop-color="#02F4F7" stop-opacity="0.96"/>
<stop offset="0.6" stop-color="#05E7EE" stop-opacity="0.91"/>
<stop offset="0.68" stop-color="#0AD4E1" stop-opacity="0.83"/>
<stop offset="0.74" stop-color="#10BBCF" stop-opacity="0.74"/>
<stop offset="0.81" stop-color="#179CBA" stop-opacity="0.62"/>
<stop offset="0.86" stop-color="#2078A1" stop-opacity="0.47"/>
<stop offset="0.92" stop-color="#2A4E83" stop-opacity="0.31"/>
<stop offset="0.97" stop-color="#351F63" stop-opacity="0.13"/>
<stop offset="1" stop-color="#3D004D" stop-opacity="0"/>
</radialGradient>
<radialGradient id="paint10_radial_612_935" cx="0" cy="0" r="1" gradientTransform="matrix(-0.601137 -2.5808 2.82986 -0.555747 1229 32.7806)" gradientUnits="userSpaceOnUse">
<stop offset="0.19" stop-color="#00FFFF"/>
<stop offset="0.4" stop-color="#00FCFD" stop-opacity="0.99"/>
<stop offset="0.51" stop-color="#02F4F7" stop-opacity="0.96"/>
<stop offset="0.6" stop-color="#05E7EE" stop-opacity="0.91"/>
<stop offset="0.68" stop-color="#0AD4E1" stop-opacity="0.83"/>
<stop offset="0.74" stop-color="#10BBCF" stop-opacity="0.74"/>
<stop offset="0.81" stop-color="#179CBA" stop-opacity="0.62"/>
<stop offset="0.86" stop-color="#2078A1" stop-opacity="0.47"/>
<stop offset="0.92" stop-color="#2A4E83" stop-opacity="0.31"/>
<stop offset="0.97" stop-color="#351F63" stop-opacity="0.13"/>
<stop offset="1" stop-color="#3D004D" stop-opacity="0"/>
</radialGradient>
<radialGradient id="paint11_radial_612_935" cx="0" cy="0" r="1" gradientTransform="matrix(-0.56579 -2.429 2.66341 -0.523049 1135.39 56.3773)" gradientUnits="userSpaceOnUse">
<stop offset="0.19" stop-color="#00FFFF"/>
<stop offset="0.4" stop-color="#00FCFD" stop-opacity="0.99"/>
<stop offset="0.51" stop-color="#02F4F7" stop-opacity="0.96"/>
<stop offset="0.6" stop-color="#05E7EE" stop-opacity="0.91"/>
<stop offset="0.68" stop-color="#0AD4E1" stop-opacity="0.83"/>
<stop offset="0.74" stop-color="#10BBCF" stop-opacity="0.74"/>
<stop offset="0.81" stop-color="#179CBA" stop-opacity="0.62"/>
<stop offset="0.86" stop-color="#2078A1" stop-opacity="0.47"/>
<stop offset="0.92" stop-color="#2A4E83" stop-opacity="0.31"/>
<stop offset="0.97" stop-color="#351F63" stop-opacity="0.13"/>
<stop offset="1" stop-color="#3D004D" stop-opacity="0"/>
</radialGradient>
<radialGradient id="paint12_radial_612_935" cx="0" cy="0" r="1" gradientTransform="matrix(-0.683633 -2.93501 3.21827 -0.632033 866.653 32.6327)" gradientUnits="userSpaceOnUse">
<stop offset="0.19" stop-color="#00FFFF"/>
<stop offset="0.4" stop-color="#00FCFD" stop-opacity="0.99"/>
<stop offset="0.51" stop-color="#02F4F7" stop-opacity="0.96"/>
<stop offset="0.6" stop-color="#05E7EE" stop-opacity="0.91"/>
<stop offset="0.68" stop-color="#0AD4E1" stop-opacity="0.83"/>
<stop offset="0.74" stop-color="#10BBCF" stop-opacity="0.74"/>
<stop offset="0.81" stop-color="#179CBA" stop-opacity="0.62"/>
<stop offset="0.86" stop-color="#2078A1" stop-opacity="0.47"/>
<stop offset="0.92" stop-color="#2A4E83" stop-opacity="0.31"/>
<stop offset="0.97" stop-color="#351F63" stop-opacity="0.13"/>
<stop offset="1" stop-color="#3D004D" stop-opacity="0"/>
</radialGradient>
<radialGradient id="paint13_radial_612_935" cx="0" cy="0" r="1" gradientTransform="matrix(-0.595251 -2.5555 2.80212 -0.550293 804.466 11.0304)" gradientUnits="userSpaceOnUse">
<stop offset="0.19" stop-color="#00FFFF"/>
<stop offset="0.4" stop-color="#00FCFD" stop-opacity="0.99"/>
<stop offset="0.51" stop-color="#02F4F7" stop-opacity="0.96"/>
<stop offset="0.6" stop-color="#05E7EE" stop-opacity="0.91"/>
<stop offset="0.68" stop-color="#0AD4E1" stop-opacity="0.83"/>
<stop offset="0.74" stop-color="#10BBCF" stop-opacity="0.74"/>
<stop offset="0.81" stop-color="#179CBA" stop-opacity="0.62"/>
<stop offset="0.86" stop-color="#2078A1" stop-opacity="0.47"/>
<stop offset="0.92" stop-color="#2A4E83" stop-opacity="0.31"/>
<stop offset="0.97" stop-color="#351F63" stop-opacity="0.13"/>
<stop offset="1" stop-color="#3D004D" stop-opacity="0"/>
</radialGradient>
<radialGradient id="paint14_radial_612_935" cx="0" cy="0" r="1" gradientTransform="matrix(-0.453805 -1.94825 2.13627 -0.419529 816.704 23.7092)" gradientUnits="userSpaceOnUse">
<stop offset="0.19" stop-color="#00FFFF"/>
<stop offset="0.4" stop-color="#00FCFD" stop-opacity="0.99"/>
<stop offset="0.51" stop-color="#02F4F7" stop-opacity="0.96"/>
<stop offset="0.6" stop-color="#05E7EE" stop-opacity="0.91"/>
<stop offset="0.68" stop-color="#0AD4E1" stop-opacity="0.83"/>
<stop offset="0.74" stop-color="#10BBCF" stop-opacity="0.74"/>
<stop offset="0.81" stop-color="#179CBA" stop-opacity="0.62"/>
<stop offset="0.86" stop-color="#2078A1" stop-opacity="0.47"/>
<stop offset="0.92" stop-color="#2A4E83" stop-opacity="0.31"/>
<stop offset="0.97" stop-color="#351F63" stop-opacity="0.13"/>
<stop offset="1" stop-color="#3D004D" stop-opacity="0"/>
</radialGradient>
<radialGradient id="paint15_radial_612_935" cx="0" cy="0" r="1" gradientTransform="matrix(-0.524529 -2.25187 2.46919 -0.48491 908.491 246.754)" gradientUnits="userSpaceOnUse">
<stop offset="0.19" stop-color="#00FFFF"/>
<stop offset="0.4" stop-color="#00FCFD" stop-opacity="0.99"/>
<stop offset="0.51" stop-color="#02F4F7" stop-opacity="0.96"/>
<stop offset="0.6" stop-color="#05E7EE" stop-opacity="0.91"/>
<stop offset="0.68" stop-color="#0AD4E1" stop-opacity="0.83"/>
<stop offset="0.74" stop-color="#10BBCF" stop-opacity="0.74"/>
<stop offset="0.81" stop-color="#179CBA" stop-opacity="0.62"/>
<stop offset="0.86" stop-color="#2078A1" stop-opacity="0.47"/>
<stop offset="0.92" stop-color="#2A4E83" stop-opacity="0.31"/>
<stop offset="0.97" stop-color="#351F63" stop-opacity="0.13"/>
<stop offset="1" stop-color="#3D004D" stop-opacity="0"/>
</radialGradient>
<radialGradient id="paint16_radial_612_935" cx="0" cy="0" r="1" gradientTransform="matrix(-0.601138 -2.5808 2.82986 -0.555745 1118.28 330.945)" gradientUnits="userSpaceOnUse">
<stop offset="0.19" stop-color="#00FFFF"/>
<stop offset="0.4" stop-color="#00FCFD" stop-opacity="0.99"/>
<stop offset="0.51" stop-color="#02F4F7" stop-opacity="0.96"/>
<stop offset="0.6" stop-color="#05E7EE" stop-opacity="0.91"/>
<stop offset="0.68" stop-color="#0AD4E1" stop-opacity="0.83"/>
<stop offset="0.74" stop-color="#10BBCF" stop-opacity="0.74"/>
<stop offset="0.81" stop-color="#179CBA" stop-opacity="0.62"/>
<stop offset="0.86" stop-color="#2078A1" stop-opacity="0.47"/>
<stop offset="0.92" stop-color="#2A4E83" stop-opacity="0.31"/>
<stop offset="0.97" stop-color="#351F63" stop-opacity="0.13"/>
<stop offset="1" stop-color="#3D004D" stop-opacity="0"/>
</radialGradient>
<radialGradient id="paint17_radial_612_935" cx="0" cy="0" r="1" gradientTransform="matrix(-0.506837 -2.17596 2.38596 -0.468572 1162.16 453.672)" gradientUnits="userSpaceOnUse">
<stop offset="0.19" stop-color="#00FFFF"/>
<stop offset="0.4" stop-color="#00FCFD" stop-opacity="0.99"/>
<stop offset="0.51" stop-color="#02F4F7" stop-opacity="0.96"/>
<stop offset="0.6" stop-color="#05E7EE" stop-opacity="0.91"/>
<stop offset="0.68" stop-color="#0AD4E1" stop-opacity="0.83"/>
<stop offset="0.74" stop-color="#10BBCF" stop-opacity="0.74"/>
<stop offset="0.81" stop-color="#179CBA" stop-opacity="0.62"/>
<stop offset="0.86" stop-color="#2078A1" stop-opacity="0.47"/>
<stop offset="0.92" stop-color="#2A4E83" stop-opacity="0.31"/>
<stop offset="0.97" stop-color="#351F63" stop-opacity="0.13"/>
<stop offset="1" stop-color="#3D004D" stop-opacity="0"/>
</radialGradient>
<radialGradient id="paint18_radial_612_935" cx="0" cy="0" r="1" gradientTransform="matrix(-0.860465 -3.69409 4.05059 -0.79547 612.784 79.6847)" gradientUnits="userSpaceOnUse">
<stop offset="0.19" stop-color="#00FFFF"/>
<stop offset="0.4" stop-color="#00FCFD" stop-opacity="0.99"/>
<stop offset="0.51" stop-color="#02F4F7" stop-opacity="0.96"/>
<stop offset="0.6" stop-color="#05E7EE" stop-opacity="0.91"/>
<stop offset="0.68" stop-color="#0AD4E1" stop-opacity="0.83"/>
<stop offset="0.74" stop-color="#10BBCF" stop-opacity="0.74"/>
<stop offset="0.81" stop-color="#179CBA" stop-opacity="0.62"/>
<stop offset="0.86" stop-color="#2078A1" stop-opacity="0.47"/>
<stop offset="0.92" stop-color="#2A4E83" stop-opacity="0.31"/>
<stop offset="0.97" stop-color="#351F63" stop-opacity="0.13"/>
<stop offset="1" stop-color="#3D004D" stop-opacity="0"/>
</radialGradient>
<radialGradient id="paint19_radial_612_935" cx="0" cy="0" r="1" gradientTransform="matrix(-0.795615 -3.41575 3.7454 -0.735551 655.324 89.0581)" gradientUnits="userSpaceOnUse">
<stop offset="0.19" stop-color="#00FFFF"/>
<stop offset="0.4" stop-color="#00FCFD" stop-opacity="0.99"/>
<stop offset="0.51" stop-color="#02F4F7" stop-opacity="0.96"/>
<stop offset="0.6" stop-color="#05E7EE" stop-opacity="0.91"/>
<stop offset="0.68" stop-color="#0AD4E1" stop-opacity="0.83"/>
<stop offset="0.74" stop-color="#10BBCF" stop-opacity="0.74"/>
<stop offset="0.81" stop-color="#179CBA" stop-opacity="0.62"/>
<stop offset="0.86" stop-color="#2078A1" stop-opacity="0.47"/>
<stop offset="0.92" stop-color="#2A4E83" stop-opacity="0.31"/>
<stop offset="0.97" stop-color="#351F63" stop-opacity="0.13"/>
<stop offset="1" stop-color="#3D004D" stop-opacity="0"/>
</radialGradient>
<radialGradient id="paint20_radial_612_935" cx="0" cy="0" r="1" gradientTransform="matrix(-1.00778 -4.32662 4.74417 -0.931696 740.611 108.32)" gradientUnits="userSpaceOnUse">
<stop offset="0.19" stop-color="#00FFFF"/>
<stop offset="0.4" stop-color="#00FCFD" stop-opacity="0.99"/>
<stop offset="0.51" stop-color="#02F4F7" stop-opacity="0.96"/>
<stop offset="0.6" stop-color="#05E7EE" stop-opacity="0.91"/>
<stop offset="0.68" stop-color="#0AD4E1" stop-opacity="0.83"/>
<stop offset="0.74" stop-color="#10BBCF" stop-opacity="0.74"/>
<stop offset="0.81" stop-color="#179CBA" stop-opacity="0.62"/>
<stop offset="0.86" stop-color="#2078A1" stop-opacity="0.47"/>
<stop offset="0.92" stop-color="#2A4E83" stop-opacity="0.31"/>
<stop offset="0.97" stop-color="#351F63" stop-opacity="0.13"/>
<stop offset="1" stop-color="#3D004D" stop-opacity="0"/>
</radialGradient>
<radialGradient id="paint21_radial_612_935" cx="0" cy="0" r="1" gradientTransform="matrix(-0.813305 -3.49166 3.82863 -0.751889 866.146 135.58)" gradientUnits="userSpaceOnUse">
<stop offset="0.19" stop-color="#00FFFF"/>
<stop offset="0.4" stop-color="#00FCFD" stop-opacity="0.99"/>
<stop offset="0.51" stop-color="#02F4F7" stop-opacity="0.96"/>
<stop offset="0.6" stop-color="#05E7EE" stop-opacity="0.91"/>
<stop offset="0.68" stop-color="#0AD4E1" stop-opacity="0.83"/>
<stop offset="0.74" stop-color="#10BBCF" stop-opacity="0.74"/>
<stop offset="0.81" stop-color="#179CBA" stop-opacity="0.62"/>
<stop offset="0.86" stop-color="#2078A1" stop-opacity="0.47"/>
<stop offset="0.92" stop-color="#2A4E83" stop-opacity="0.31"/>
<stop offset="0.97" stop-color="#351F63" stop-opacity="0.13"/>
<stop offset="1" stop-color="#3D004D" stop-opacity="0"/>
</radialGradient>
<radialGradient id="paint22_radial_612_935" cx="0" cy="0" r="1" gradientTransform="matrix(-0.542215 -2.32779 2.55244 -0.501255 946.434 153.31)" gradientUnits="userSpaceOnUse">
<stop offset="0.19" stop-color="#00FFFF"/>
<stop offset="0.4" stop-color="#00FCFD" stop-opacity="0.99"/>
<stop offset="0.51" stop-color="#02F4F7" stop-opacity="0.96"/>
<stop offset="0.6" stop-color="#05E7EE" stop-opacity="0.91"/>
<stop offset="0.68" stop-color="#0AD4E1" stop-opacity="0.83"/>
<stop offset="0.74" stop-color="#10BBCF" stop-opacity="0.74"/>
<stop offset="0.81" stop-color="#179CBA" stop-opacity="0.62"/>
<stop offset="0.86" stop-color="#2078A1" stop-opacity="0.47"/>
<stop offset="0.92" stop-color="#2A4E83" stop-opacity="0.31"/>
<stop offset="0.97" stop-color="#351F63" stop-opacity="0.13"/>
<stop offset="1" stop-color="#3D004D" stop-opacity="0"/>
</radialGradient>
</defs>
</svg>
