<svg width="619" height="975" viewBox="0 0 619 975" fill="none" xmlns="http://www.w3.org/2000/svg">
<path d="M-577.407 502.151L-340.888 507.627L-200.6 622.647L-373.734 744.555L-374.413 744.233L-412.091 853.083L-421.7 858.262L-410.978 855.214L-263.034 902.342L-324.085 940.104L-333.559 940.401L-324.465 942.433L-232.93 1059.98L-232.876 1060.03L229.983 1659.31L227.621 1666.05L230.444 1662.51L231.313 1671.36L232.779 1659.59L506.976 1314.85L509.799 1314.15L322.088 1221.16L304.66 1083.02L306.533 1083.45L305.393 1082.11L492.508 1033.74L563.14 1143.9L565.475 1142.67L495.195 1033.05L603.126 1005.15L609.939 1005.39L430.67 932.423L282.401 701.218L536.918 764.749L537.623 762.371L281.532 698.443L375.483 532.43L540.691 491.818L509.799 178.226L510.587 176.12L71.1273 306.379L-149.675 8.14923L-150.842 6.56354L-332.69 271.764L-334.101 271.64L-333.504 272.953L-334.291 274.118L-332.907 274.242L-284.669 379.326L-285.158 379.425L-283.991 380.837L-283.611 381.655L-283.366 381.605L-160.071 530.299L-344.688 504.579L-344.037 505.099L-577.38 499.698L-577.461 502.176L-577.407 502.151ZM-198.374 624.208L-133.795 658.625L-365.237 741.681L-198.374 624.208ZM-130.808 660.235L-91.9904 680.925L-288.687 786.727L-370.395 746.215L-130.781 660.235L-130.808 660.235ZM278.682 698.071L17.2705 732.265L371.167 534.709L278.682 698.071ZM380.369 994.789L323.174 891.39L428.77 934.38L469.542 997.961L380.369 994.814L380.369 994.789ZM377.899 995.83L304.796 1077.55L321.192 893.323L377.899 995.83ZM-196.012 938.692L-150.516 978.758L-313.769 942.284L-196.039 938.716L-196.012 938.692ZM-193.596 937.378L-183.661 927.616L-33.356 975.512L-38.3779 1003.81L-145.277 979.922L-193.596 937.378ZM-285.918 788.065L-89.3301 682.337L7.5524 733.975L-248.593 806.575L-285.918 788.065ZM-252.203 807.591L-400.201 849.54L-288.633 789.527L-252.203 807.591ZM76.7735 1007.97L114.886 989.536L287.694 1075.19L76.7735 1008L76.7735 1007.97ZM275.886 1074.03L46.2891 1022.71L73.5161 1009.56L275.886 1074.03ZM73.2988 1006.86L-30.2885 973.852L-21.0862 922.115L112.063 988.099L73.2988 1006.86ZM70.0143 1008.44L42.3258 1021.85L-35.7176 1004.4L-30.7228 976.354L70.0414 1008.47L70.0143 1008.44ZM38.7155 1023.58L-46.4673 1064.79L-36.152 1006.86L38.7155 1023.58ZM42.6787 1024.47L289.323 1079.6L-43.2098 1066.03L42.6787 1024.47ZM117.79 988.149L192.468 952.022L298.118 1077.52L117.79 988.149ZM114.94 986.736L-20.6247 919.563L11.7599 737.394L11.8414 737.518L190.785 950.04L114.913 986.736L114.94 986.736ZM-23.1493 918.299L-123.588 868.52L8.88254 738.162L-23.1493 918.274L-23.1493 918.299ZM28.4545 619.004L112.986 573.536L13.1172 728.499L28.4545 619.004ZM28.8888 615.907L30.789 602.254L101.34 576.931L28.8888 615.907ZM31.1961 599.454L36.7067 560.156L111.628 570.588L31.1961 599.454ZM10.0226 731.175L-48.6117 660.458L25.4956 620.59L10.0226 731.15L10.0226 731.175ZM5.76077 730.159L-86.6155 680.925L-50.9734 661.747L5.76077 730.159ZM2.61191 738.014L-170.658 845.204L-245.227 808.235L2.61191 737.989L2.61191 738.014ZM1.87893 741.458L-126.031 867.306L-167.971 846.517L1.85183 741.433L1.87893 741.458ZM-127.931 869.189L-184.394 924.766L-257.008 901.624L-170.495 848.078L-127.931 869.164L-127.931 869.189ZM-125.461 870.403L-23.5835 920.901L-32.8674 973.059L-181.598 925.658L-125.461 870.403ZM-38.7851 1006.26L-49.1547 1064.51L-141.368 983.342L-38.8122 1006.26L-38.7851 1006.26ZM298.797 1082.45L180.877 1151.66L-62.8089 1189.74L-46.983 1068.33L298.824 1082.45L298.797 1082.45ZM180.144 1154.29L229.576 1653.61L-62.266 1192.17L180.117 1154.29L180.144 1154.29ZM182.94 1155.03L286.283 1206.22L231.666 1646.85L182.967 1155.03L182.94 1155.03ZM184.026 1152.75L301.457 1083.84L286.609 1203.57L184.026 1152.75ZM302.082 1078.12L194.938 950.833L318.722 890.944L302.082 1078.09L302.082 1078.12ZM193.255 948.851L15.9675 738.237L317.419 888.789L193.255 948.851ZM14.8817 730.679L117.763 571.034L122.025 569.498L119.012 569.076L120.641 566.524L116.542 568.73L37.0325 557.654L70.0144 322.014L71.6702 310.145L372.253 531.166L14.8545 730.655L14.8817 730.679ZM28.3188 600.47L-69.2966 635.507L-153.774 533.619L34.0193 559.785L28.3188 600.495L28.3188 600.47ZM27.9387 603.27L27.07 609.539L25.9571 617.493L-50.2405 658.476L-67.5864 637.563L27.9387 603.295L27.9387 603.27ZM-52.6021 659.74L-89.2758 679.463L-127.551 659.071L-70.2196 638.505L-52.6021 659.74ZM-372.784 747.826L-291.374 788.165L-408.535 851.175L-372.757 747.801L-372.784 747.826ZM-406.58 853.975L-248.837 809.276L-173.183 846.765L-260.211 900.608L-406.58 853.975ZM-259.804 903.358L-186.403 926.749L-196.039 936.239L-318.954 939.98L-259.804 903.383L-259.804 903.358ZM-146.58 982.177L-51.7335 1065.68L-231.057 1058.05L-320.366 943.35L-146.553 982.202L-146.58 982.177ZM-229.102 1060.6L-49.8062 1068.23L-49.9962 1069.32L-49.8605 1069.27L-65.9578 1192.77L-65.0891 1192.64L215.324 1636.02L-229.102 1060.6ZM235.331 1652.15L338.647 1355.96L502.796 1315.86L235.331 1652.15ZM502.524 1313.39L338.755 1353.38L322.468 1224.19L502.524 1313.39ZM336.203 1354.82L234.38 1646.7L288.834 1207.51L319.563 1222.72L336.203 1354.82ZM289.16 1204.86L303.113 1092.34L319.183 1219.73L289.16 1204.86ZM306.886 1079.16L380.152 997.267L471.171 1000.49L491.096 1031.54L306.886 1079.16ZM493.783 1030.84L474.401 1000.59L594.358 1004.82L493.783 1030.82L493.783 1030.84ZM595.986 1002.42L472.773 998.06L433.032 936.09L595.959 1002.42L595.986 1002.42ZM320.866 887.723L15.1531 735.04L278.845 700.549L426.408 930.688L320.839 887.723L320.866 887.723ZM537.841 489.96L376.732 529.555L507.682 183.925L537.841 489.96ZM373.963 529.308L73.679 308.485L79.271 307.345L77.2893 307.172L506.298 180.01L373.963 529.308ZM-150.679 11.1226L67.9241 306.379L-329.595 272.036L-150.679 11.1226ZM-281.901 378.78L-329.758 274.514L-164.876 288.761L62.0607 308.361L-33.0302 327.837L-281.873 378.78L-281.901 378.78ZM-280.353 381.01L-32.9759 330.364L69.0642 309.476L34.3722 557.381L-156.135 530.844L-280.38 381.01L-280.353 381.01ZM-157.601 533.123L-71.9027 636.498L-130.51 657.534L-197.614 621.755L-336.002 508.296L-157.601 533.148L-157.601 533.123Z" fill="url(#paint0_linear_612_846)"/>
<g style="mix-blend-mode:screen" filter="url(#filter0_d_612_846)">
<path d="M-7.59496 737.642C-9.60373 728.301 -2.92595 719.232 7.30792 717.423C17.5418 715.59 27.4771 721.685 29.4587 731.026C31.4675 740.368 24.7896 749.437 14.5558 751.245C4.3219 753.079 -5.61333 746.984 -7.59496 737.642Z" fill="url(#paint1_radial_612_846)"/>
<path d="M60.9204 309.55C59.8618 304.644 63.3636 299.912 68.7384 298.946C74.086 297.979 79.298 301.176 80.3567 306.082C81.4153 310.963 77.9135 315.72 72.5387 316.687C67.1911 317.653 61.9791 314.457 60.9204 309.55Z" fill="url(#paint2_radial_612_846)"/>
<path d="M501.086 179.366C500.299 175.649 502.932 172.057 507.003 171.313C511.075 170.57 515.011 172.998 515.826 176.715C516.64 180.432 513.98 184.024 509.908 184.768C505.836 185.486 501.9 183.083 501.086 179.366Z" fill="url(#paint3_radial_612_846)"/>
<path d="M535.424 491.546C535.017 489.613 536.402 487.73 538.519 487.358C540.636 486.986 542.7 488.25 543.107 490.183C543.514 492.115 542.129 493.999 540.012 494.37C537.895 494.742 535.832 493.478 535.424 491.546Z" fill="url(#paint4_radial_612_846)"/>
<path d="M366.797 532.727C365.955 528.787 368.751 524.971 373.067 524.203C377.383 523.435 381.564 525.987 382.405 529.927C383.247 533.866 380.451 537.682 376.135 538.45C371.818 539.218 367.638 536.666 366.797 532.727Z" fill="url(#paint5_radial_612_846)"/>
<path d="M271.516 700.648C270.647 696.584 273.552 692.645 278.003 691.852C282.455 691.059 286.771 693.71 287.64 697.774C288.509 701.837 285.604 705.777 281.152 706.57C276.7 707.363 272.384 704.712 271.516 700.648Z" fill="url(#paint6_radial_612_846)"/>
<path d="M533.199 764.278C532.764 762.221 534.23 760.214 536.483 759.818C538.736 759.421 540.935 760.759 541.37 762.816C541.804 764.873 540.338 766.88 538.085 767.276C535.832 767.673 533.633 766.335 533.199 764.278Z" fill="url(#paint7_radial_612_846)"/>
<path d="M308.895 892.753C307.674 887.104 311.718 881.628 317.907 880.537C324.097 879.422 330.096 883.114 331.29 888.764C332.512 894.413 328.467 899.889 322.278 900.979C316.089 902.07 310.09 898.402 308.895 892.753Z" fill="url(#paint8_radial_612_846)"/>
<path d="M108.724 571.505C107.855 567.416 110.76 563.452 115.239 562.659C119.718 561.866 124.061 564.517 124.93 568.606C125.798 572.694 122.894 576.659 118.415 577.451C113.936 578.244 109.593 575.593 108.724 571.505Z" fill="url(#paint9_radial_612_846)"/>
<path d="M25.5498 620.466C24.2197 619.648 23.8668 617.988 24.7626 616.774C25.6584 615.56 27.4771 615.238 28.8073 616.055C30.1374 616.873 30.4903 618.533 29.5945 619.747C28.6987 620.961 26.88 621.284 25.5498 620.466Z" fill="url(#paint10_radial_612_846)"/>
<path d="M28.2644 603.096C27.2057 602.452 26.9343 601.139 27.6401 600.173C28.3459 599.206 29.7846 598.959 30.8432 599.603C31.9019 600.247 32.1734 601.56 31.4676 602.527C30.7618 603.493 29.3231 603.741 28.2644 603.096Z" fill="url(#paint11_radial_612_846)"/>
<path d="M33.8562 560.998C32.499 560.156 32.119 558.471 33.0419 557.207C33.9649 555.969 35.8108 555.622 37.1952 556.464C38.5525 557.307 38.9325 558.991 38.0095 560.255C37.0866 561.494 35.2407 561.841 33.8562 560.998Z" fill="url(#paint12_radial_612_846)"/>
<path d="M47.1305 677.852C45.8547 677.084 45.529 675.498 46.3705 674.359C47.212 673.219 48.9493 672.897 50.198 673.665C51.4738 674.433 51.7996 676.019 50.9581 677.158C50.1166 678.323 48.3792 678.62 47.1305 677.852Z" fill="url(#paint13_radial_612_846)"/>
<path d="M127.156 720.917C125.961 720.198 125.663 718.711 126.45 717.621C127.237 716.531 128.866 716.258 130.06 716.977C131.255 717.695 131.553 719.182 130.766 720.272C129.979 721.363 128.35 721.635 127.156 720.917Z" fill="url(#paint14_radial_612_846)"/>
<path d="M287.368 906.257C285.93 905.365 285.55 903.581 286.5 902.268C287.477 900.955 289.432 900.608 290.87 901.475C292.309 902.367 292.689 904.151 291.739 905.464C290.762 906.777 288.807 907.124 287.368 906.257Z" fill="url(#paint15_radial_612_846)"/>
<path d="M312.614 959.456C311.365 958.688 311.04 957.127 311.881 955.987C312.723 954.847 314.433 954.55 315.682 955.318C316.93 956.086 317.256 957.647 316.414 958.787C315.573 959.926 313.863 960.224 312.614 959.456Z" fill="url(#paint16_radial_612_846)"/>
<path d="M314.433 942.83C313.483 942.235 313.238 941.07 313.863 940.203C314.514 939.336 315.79 939.113 316.74 939.683C317.69 940.277 317.935 941.442 317.31 942.309C316.659 943.176 315.383 943.399 314.433 942.83Z" fill="url(#paint17_radial_612_846)"/>
<path d="M421.332 736.775C420.219 736.081 419.92 734.718 420.681 733.702C421.441 732.686 422.934 732.414 424.047 733.107C425.16 733.801 425.458 735.164 424.698 736.18C423.938 737.196 422.445 737.468 421.332 736.775Z" fill="url(#paint18_radial_612_846)"/>
<path d="M345.27 548.932C343.994 548.164 343.669 546.578 344.51 545.438C345.352 544.274 347.089 543.976 348.338 544.744C349.586 545.512 349.939 547.098 349.098 548.238C348.256 549.403 346.519 549.7 345.27 548.932Z" fill="url(#paint19_radial_612_846)"/>
<path d="M408.872 439.239C407.813 438.595 407.515 437.257 408.248 436.29C408.954 435.324 410.419 435.051 411.478 435.72C412.537 436.365 412.835 437.703 412.102 438.669C411.397 439.635 409.931 439.908 408.872 439.239Z" fill="url(#paint20_radial_612_846)"/>
<path d="M255.201 446.227C254.143 445.582 253.871 444.269 254.577 443.303C255.283 442.337 256.721 442.089 257.78 442.733C258.839 443.377 259.11 444.69 258.404 445.657C257.699 446.623 256.26 446.871 255.201 446.227Z" fill="url(#paint21_radial_612_846)"/>
<path d="M60.812 367.531C59.319 366.615 58.939 364.781 59.9162 363.418C60.8935 362.055 62.9294 361.708 64.4224 362.6C65.9154 363.492 66.2955 365.351 65.3182 366.714C64.3138 368.076 62.305 368.423 60.812 367.531Z" fill="url(#paint22_radial_612_846)"/>
<path d="M41.5388 274.143C39.8286 273.102 39.3672 270.971 40.5344 269.435C41.6745 267.874 44.009 267.453 45.6921 268.518C47.4022 269.559 47.8637 271.69 46.6965 273.226C45.5564 274.787 43.2218 275.208 41.5388 274.143Z" fill="url(#paint23_radial_612_846)"/>
<path d="M184.27 276.447C182.479 275.332 181.99 273.127 183.212 271.491C184.433 269.856 186.849 269.41 188.641 270.525C190.432 271.64 190.921 273.845 189.699 275.481C188.478 277.116 186.062 277.562 184.27 276.447Z" fill="url(#paint24_radial_612_846)"/>
<path d="M190.025 954.277C187.69 952.84 187.093 949.965 188.64 947.835C190.215 945.704 193.364 945.158 195.698 946.571C198.033 948.008 198.63 950.882 197.082 953.013C195.508 955.144 192.359 955.689 190.025 954.277Z" fill="url(#paint25_radial_612_846)"/>
<path d="M427.25 936.288C425.132 934.975 424.562 932.348 426.001 930.416C427.44 928.483 430.317 927.963 432.434 929.276C434.552 930.589 435.122 933.216 433.683 935.148C432.244 937.081 429.367 937.601 427.25 936.288Z" fill="url(#paint26_radial_612_846)"/>
<path d="M364.951 838.439C363.24 837.398 362.779 835.267 363.946 833.706C365.086 832.145 367.421 831.724 369.131 832.79C370.841 833.83 371.303 835.961 370.135 837.522C368.995 839.083 366.661 839.505 364.951 838.439Z" fill="url(#paint27_radial_612_846)"/>
<path d="M325.698 775.181C324.558 774.487 324.259 773.074 325.019 772.034C325.779 770.993 327.327 770.721 328.467 771.414C329.607 772.108 329.906 773.521 329.146 774.561C328.385 775.602 326.838 775.874 325.698 775.181Z" fill="url(#paint28_radial_612_846)"/>
</g>
<defs>
<filter id="filter0_d_612_846" x="-588" y="0.113403" width="1207" height="1670.63" filterUnits="userSpaceOnUse" color-interpolation-filters="sRGB">
<feFlood flood-opacity="0" result="BackgroundImageFix"/>
<feColorMatrix in="SourceAlpha" type="matrix" values="0 0 0 0 0 0 0 0 0 0 0 0 0 0 0 0 0 0 127 0" result="hardAlpha"/>
<feOffset/>
<feGaussianBlur stdDeviation="3"/>
<feColorMatrix type="matrix" values="0 0 0 0 0 0 0 0 0 0.94902 0 0 0 0 1 0 0 0 0.7 0"/>
<feBlend mode="normal" in2="BackgroundImageFix" result="effect1_dropShadow_612_846"/>
<feBlend mode="normal" in="SourceGraphic" in2="effect1_dropShadow_612_846" result="shape"/>
</filter>
<linearGradient id="paint0_linear_612_846" x1="-349.384" y1="975.388" x2="255.597" y2="721.136" gradientUnits="userSpaceOnUse">
<stop stop-color="#0085E6"/>
<stop offset="0.13" stop-color="#007FDE" stop-opacity="0.96"/>
<stop offset="0.38" stop-color="#0071CA" stop-opacity="0.84"/>
<stop offset="0.72" stop-color="#005BA9" stop-opacity="0.66"/>
<stop offset="1" stop-color="#00478C" stop-opacity="0.49"/>
</linearGradient>
<radialGradient id="paint1_radial_612_846" cx="0" cy="0" r="1" gradientTransform="matrix(-10.5431 14.3107 -15.678 -9.62363 10.9641 734.093)" gradientUnits="userSpaceOnUse">
<stop offset="0.19" stop-color="#00FFFF"/>
<stop offset="0.4" stop-color="#00FCFD" stop-opacity="0.99"/>
<stop offset="0.51" stop-color="#02F4F7" stop-opacity="0.96"/>
<stop offset="0.6" stop-color="#05E7EE" stop-opacity="0.91"/>
<stop offset="0.68" stop-color="#0AD4E1" stop-opacity="0.83"/>
<stop offset="0.74" stop-color="#10BBCF" stop-opacity="0.74"/>
<stop offset="0.81" stop-color="#179CBA" stop-opacity="0.62"/>
<stop offset="0.86" stop-color="#2078A1" stop-opacity="0.47"/>
<stop offset="0.92" stop-color="#2A4E83" stop-opacity="0.31"/>
<stop offset="0.97" stop-color="#351F63" stop-opacity="0.13"/>
<stop offset="1" stop-color="#3D004D" stop-opacity="0"/>
</radialGradient>
<radialGradient id="paint2_radial_612_846" cx="0" cy="0" r="1" gradientTransform="matrix(-5.51393 7.48429 -8.19941 -5.03303 70.6311 307.564)" gradientUnits="userSpaceOnUse">
<stop offset="0.19" stop-color="#00FFFF"/>
<stop offset="0.4" stop-color="#00FCFD" stop-opacity="0.99"/>
<stop offset="0.51" stop-color="#02F4F7" stop-opacity="0.96"/>
<stop offset="0.6" stop-color="#05E7EE" stop-opacity="0.91"/>
<stop offset="0.68" stop-color="#0AD4E1" stop-opacity="0.83"/>
<stop offset="0.74" stop-color="#10BBCF" stop-opacity="0.74"/>
<stop offset="0.81" stop-color="#179CBA" stop-opacity="0.62"/>
<stop offset="0.86" stop-color="#2078A1" stop-opacity="0.47"/>
<stop offset="0.92" stop-color="#2A4E83" stop-opacity="0.31"/>
<stop offset="0.97" stop-color="#351F63" stop-opacity="0.13"/>
<stop offset="1" stop-color="#3D004D" stop-opacity="0"/>
</radialGradient>
<radialGradient id="paint3_radial_612_846" cx="0" cy="0" r="1" gradientTransform="matrix(-4.19604 5.69548 -6.23966 -3.83009 508.419 177.784)" gradientUnits="userSpaceOnUse">
<stop offset="0.19" stop-color="#00FFFF"/>
<stop offset="0.4" stop-color="#00FCFD" stop-opacity="0.99"/>
<stop offset="0.51" stop-color="#02F4F7" stop-opacity="0.96"/>
<stop offset="0.6" stop-color="#05E7EE" stop-opacity="0.91"/>
<stop offset="0.68" stop-color="#0AD4E1" stop-opacity="0.83"/>
<stop offset="0.74" stop-color="#10BBCF" stop-opacity="0.74"/>
<stop offset="0.81" stop-color="#179CBA" stop-opacity="0.62"/>
<stop offset="0.86" stop-color="#2078A1" stop-opacity="0.47"/>
<stop offset="0.92" stop-color="#2A4E83" stop-opacity="0.31"/>
<stop offset="0.97" stop-color="#351F63" stop-opacity="0.13"/>
<stop offset="1" stop-color="#3D004D" stop-opacity="0"/>
</radialGradient>
<radialGradient id="paint4_radial_612_846" cx="0" cy="0" r="1" gradientTransform="matrix(-2.18134 2.96082 -3.24372 -1.99109 539.267 490.599)" gradientUnits="userSpaceOnUse">
<stop offset="0.19" stop-color="#00FFFF"/>
<stop offset="0.4" stop-color="#00FCFD" stop-opacity="0.99"/>
<stop offset="0.51" stop-color="#02F4F7" stop-opacity="0.96"/>
<stop offset="0.6" stop-color="#05E7EE" stop-opacity="0.91"/>
<stop offset="0.68" stop-color="#0AD4E1" stop-opacity="0.83"/>
<stop offset="0.74" stop-color="#10BBCF" stop-opacity="0.74"/>
<stop offset="0.81" stop-color="#179CBA" stop-opacity="0.62"/>
<stop offset="0.86" stop-color="#2078A1" stop-opacity="0.47"/>
<stop offset="0.92" stop-color="#2A4E83" stop-opacity="0.31"/>
<stop offset="0.97" stop-color="#351F63" stop-opacity="0.13"/>
<stop offset="1" stop-color="#3D004D" stop-opacity="0"/>
</radialGradient>
<radialGradient id="paint5_radial_612_846" cx="0" cy="0" r="1" gradientTransform="matrix(-4.43841 6.02447 -6.60007 -4.05133 374.598 531.085)" gradientUnits="userSpaceOnUse">
<stop offset="0.19" stop-color="#00FFFF"/>
<stop offset="0.4" stop-color="#00FCFD" stop-opacity="0.99"/>
<stop offset="0.51" stop-color="#02F4F7" stop-opacity="0.96"/>
<stop offset="0.6" stop-color="#05E7EE" stop-opacity="0.91"/>
<stop offset="0.68" stop-color="#0AD4E1" stop-opacity="0.83"/>
<stop offset="0.74" stop-color="#10BBCF" stop-opacity="0.74"/>
<stop offset="0.81" stop-color="#179CBA" stop-opacity="0.62"/>
<stop offset="0.86" stop-color="#2078A1" stop-opacity="0.47"/>
<stop offset="0.92" stop-color="#2A4E83" stop-opacity="0.31"/>
<stop offset="0.97" stop-color="#351F63" stop-opacity="0.13"/>
<stop offset="1" stop-color="#3D004D" stop-opacity="0"/>
</radialGradient>
<radialGradient id="paint6_radial_612_846" cx="0" cy="0" r="1" gradientTransform="matrix(-4.5899 6.23008 -6.82534 -4.1896 279.584 698.949)" gradientUnits="userSpaceOnUse">
<stop offset="0.19" stop-color="#00FFFF"/>
<stop offset="0.4" stop-color="#00FCFD" stop-opacity="0.99"/>
<stop offset="0.51" stop-color="#02F4F7" stop-opacity="0.96"/>
<stop offset="0.6" stop-color="#05E7EE" stop-opacity="0.91"/>
<stop offset="0.68" stop-color="#0AD4E1" stop-opacity="0.83"/>
<stop offset="0.74" stop-color="#10BBCF" stop-opacity="0.74"/>
<stop offset="0.81" stop-color="#179CBA" stop-opacity="0.62"/>
<stop offset="0.86" stop-color="#2078A1" stop-opacity="0.47"/>
<stop offset="0.92" stop-color="#2A4E83" stop-opacity="0.31"/>
<stop offset="0.97" stop-color="#351F63" stop-opacity="0.13"/>
<stop offset="1" stop-color="#3D004D" stop-opacity="0"/>
</radialGradient>
<radialGradient id="paint7_radial_612_846" cx="0" cy="0" r="1" gradientTransform="matrix(-2.33282 3.16645 -3.46898 -2.12937 537.308 763.269)" gradientUnits="userSpaceOnUse">
<stop offset="0.19" stop-color="#00FFFF"/>
<stop offset="0.4" stop-color="#00FCFD" stop-opacity="0.99"/>
<stop offset="0.51" stop-color="#02F4F7" stop-opacity="0.96"/>
<stop offset="0.6" stop-color="#05E7EE" stop-opacity="0.91"/>
<stop offset="0.68" stop-color="#0AD4E1" stop-opacity="0.83"/>
<stop offset="0.74" stop-color="#10BBCF" stop-opacity="0.74"/>
<stop offset="0.81" stop-color="#179CBA" stop-opacity="0.62"/>
<stop offset="0.86" stop-color="#2078A1" stop-opacity="0.47"/>
<stop offset="0.92" stop-color="#2A4E83" stop-opacity="0.31"/>
<stop offset="0.97" stop-color="#351F63" stop-opacity="0.13"/>
<stop offset="1" stop-color="#3D004D" stop-opacity="0"/>
</radialGradient>
<radialGradient id="paint8_radial_612_846" cx="0" cy="0" r="1" gradientTransform="matrix(-6.36223 8.63575 -9.46086 -5.80736 320.105 890.47)" gradientUnits="userSpaceOnUse">
<stop offset="0.19" stop-color="#00FFFF"/>
<stop offset="0.4" stop-color="#00FCFD" stop-opacity="0.99"/>
<stop offset="0.51" stop-color="#02F4F7" stop-opacity="0.96"/>
<stop offset="0.6" stop-color="#05E7EE" stop-opacity="0.91"/>
<stop offset="0.68" stop-color="#0AD4E1" stop-opacity="0.83"/>
<stop offset="0.74" stop-color="#10BBCF" stop-opacity="0.74"/>
<stop offset="0.81" stop-color="#179CBA" stop-opacity="0.62"/>
<stop offset="0.86" stop-color="#2078A1" stop-opacity="0.47"/>
<stop offset="0.92" stop-color="#2A4E83" stop-opacity="0.31"/>
<stop offset="0.97" stop-color="#351F63" stop-opacity="0.13"/>
<stop offset="1" stop-color="#3D004D" stop-opacity="0"/>
</radialGradient>
<radialGradient id="paint9_radial_612_846" cx="0" cy="0" r="1" gradientTransform="matrix(-4.60504 6.25064 -6.84786 -4.20343 116.82 569.808)" gradientUnits="userSpaceOnUse">
<stop offset="0.19" stop-color="#00FFFF"/>
<stop offset="0.4" stop-color="#00FCFD" stop-opacity="0.99"/>
<stop offset="0.51" stop-color="#02F4F7" stop-opacity="0.96"/>
<stop offset="0.6" stop-color="#05E7EE" stop-opacity="0.91"/>
<stop offset="0.68" stop-color="#0AD4E1" stop-opacity="0.83"/>
<stop offset="0.74" stop-color="#10BBCF" stop-opacity="0.74"/>
<stop offset="0.81" stop-color="#179CBA" stop-opacity="0.62"/>
<stop offset="0.86" stop-color="#2078A1" stop-opacity="0.47"/>
<stop offset="0.92" stop-color="#2A4E83" stop-opacity="0.31"/>
<stop offset="0.97" stop-color="#351F63" stop-opacity="0.13"/>
<stop offset="1" stop-color="#3D004D" stop-opacity="0"/>
</radialGradient>
<radialGradient id="paint10_radial_612_846" cx="0" cy="0" r="1" gradientTransform="matrix(-1.636 2.22062 -2.43279 -1.49332 27.1948 618.018)" gradientUnits="userSpaceOnUse">
<stop offset="0.19" stop-color="#00FFFF"/>
<stop offset="0.4" stop-color="#00FCFD" stop-opacity="0.99"/>
<stop offset="0.51" stop-color="#02F4F7" stop-opacity="0.96"/>
<stop offset="0.6" stop-color="#05E7EE" stop-opacity="0.91"/>
<stop offset="0.68" stop-color="#0AD4E1" stop-opacity="0.83"/>
<stop offset="0.74" stop-color="#10BBCF" stop-opacity="0.74"/>
<stop offset="0.81" stop-color="#179CBA" stop-opacity="0.62"/>
<stop offset="0.86" stop-color="#2078A1" stop-opacity="0.47"/>
<stop offset="0.92" stop-color="#2A4E83" stop-opacity="0.31"/>
<stop offset="0.97" stop-color="#351F63" stop-opacity="0.13"/>
<stop offset="1" stop-color="#3D004D" stop-opacity="0"/>
</radialGradient>
<radialGradient id="paint11_radial_612_846" cx="0" cy="0" r="1" gradientTransform="matrix(-1.28759 1.74772 -1.9147 -1.1753 29.573 601.114)" gradientUnits="userSpaceOnUse">
<stop offset="0.19" stop-color="#00FFFF"/>
<stop offset="0.4" stop-color="#00FCFD" stop-opacity="0.99"/>
<stop offset="0.51" stop-color="#02F4F7" stop-opacity="0.96"/>
<stop offset="0.6" stop-color="#05E7EE" stop-opacity="0.91"/>
<stop offset="0.68" stop-color="#0AD4E1" stop-opacity="0.83"/>
<stop offset="0.74" stop-color="#10BBCF" stop-opacity="0.74"/>
<stop offset="0.81" stop-color="#179CBA" stop-opacity="0.62"/>
<stop offset="0.86" stop-color="#2078A1" stop-opacity="0.47"/>
<stop offset="0.92" stop-color="#2A4E83" stop-opacity="0.31"/>
<stop offset="0.97" stop-color="#351F63" stop-opacity="0.13"/>
<stop offset="1" stop-color="#3D004D" stop-opacity="0"/>
</radialGradient>
<radialGradient id="paint12_radial_612_846" cx="0" cy="0" r="1" gradientTransform="matrix(-1.66629 2.26175 -2.47784 -1.52098 35.5274 558.486)" gradientUnits="userSpaceOnUse">
<stop offset="0.19" stop-color="#00FFFF"/>
<stop offset="0.4" stop-color="#00FCFD" stop-opacity="0.99"/>
<stop offset="0.51" stop-color="#02F4F7" stop-opacity="0.96"/>
<stop offset="0.6" stop-color="#05E7EE" stop-opacity="0.91"/>
<stop offset="0.68" stop-color="#0AD4E1" stop-opacity="0.83"/>
<stop offset="0.74" stop-color="#10BBCF" stop-opacity="0.74"/>
<stop offset="0.81" stop-color="#179CBA" stop-opacity="0.62"/>
<stop offset="0.86" stop-color="#2078A1" stop-opacity="0.47"/>
<stop offset="0.92" stop-color="#2A4E83" stop-opacity="0.31"/>
<stop offset="0.97" stop-color="#351F63" stop-opacity="0.13"/>
<stop offset="1" stop-color="#3D004D" stop-opacity="0"/>
</radialGradient>
<radialGradient id="paint13_radial_612_846" cx="0" cy="0" r="1" gradientTransform="matrix(-1.54511 2.09726 -2.29764 -1.41036 48.6854 675.521)" gradientUnits="userSpaceOnUse">
<stop offset="0.19" stop-color="#00FFFF"/>
<stop offset="0.4" stop-color="#00FCFD" stop-opacity="0.99"/>
<stop offset="0.51" stop-color="#02F4F7" stop-opacity="0.96"/>
<stop offset="0.6" stop-color="#05E7EE" stop-opacity="0.91"/>
<stop offset="0.68" stop-color="#0AD4E1" stop-opacity="0.83"/>
<stop offset="0.74" stop-color="#10BBCF" stop-opacity="0.74"/>
<stop offset="0.81" stop-color="#179CBA" stop-opacity="0.62"/>
<stop offset="0.86" stop-color="#2078A1" stop-opacity="0.47"/>
<stop offset="0.92" stop-color="#2A4E83" stop-opacity="0.31"/>
<stop offset="0.97" stop-color="#351F63" stop-opacity="0.13"/>
<stop offset="1" stop-color="#3D004D" stop-opacity="0"/>
</radialGradient>
<radialGradient id="paint14_radial_612_846" cx="0" cy="0" r="1" gradientTransform="matrix(-1.45423 1.97391 -2.16249 -1.32741 128.618 718.704)" gradientUnits="userSpaceOnUse">
<stop offset="0.19" stop-color="#00FFFF"/>
<stop offset="0.4" stop-color="#00FCFD" stop-opacity="0.99"/>
<stop offset="0.51" stop-color="#02F4F7" stop-opacity="0.96"/>
<stop offset="0.6" stop-color="#05E7EE" stop-opacity="0.91"/>
<stop offset="0.68" stop-color="#0AD4E1" stop-opacity="0.83"/>
<stop offset="0.74" stop-color="#10BBCF" stop-opacity="0.74"/>
<stop offset="0.81" stop-color="#179CBA" stop-opacity="0.62"/>
<stop offset="0.86" stop-color="#2078A1" stop-opacity="0.47"/>
<stop offset="0.92" stop-color="#2A4E83" stop-opacity="0.31"/>
<stop offset="0.97" stop-color="#351F63" stop-opacity="0.13"/>
<stop offset="1" stop-color="#3D004D" stop-opacity="0"/>
</radialGradient>
<radialGradient id="paint15_radial_612_846" cx="0" cy="0" r="1" gradientTransform="matrix(-1.75719 2.3851 -2.613 -1.60393 289.164 903.607)" gradientUnits="userSpaceOnUse">
<stop offset="0.19" stop-color="#00FFFF"/>
<stop offset="0.4" stop-color="#00FCFD" stop-opacity="0.99"/>
<stop offset="0.51" stop-color="#02F4F7" stop-opacity="0.96"/>
<stop offset="0.6" stop-color="#05E7EE" stop-opacity="0.91"/>
<stop offset="0.68" stop-color="#0AD4E1" stop-opacity="0.83"/>
<stop offset="0.74" stop-color="#10BBCF" stop-opacity="0.74"/>
<stop offset="0.81" stop-color="#179CBA" stop-opacity="0.62"/>
<stop offset="0.86" stop-color="#2078A1" stop-opacity="0.47"/>
<stop offset="0.92" stop-color="#2A4E83" stop-opacity="0.31"/>
<stop offset="0.97" stop-color="#351F63" stop-opacity="0.13"/>
<stop offset="1" stop-color="#3D004D" stop-opacity="0"/>
</radialGradient>
<radialGradient id="paint16_radial_612_846" cx="0" cy="0" r="1" gradientTransform="matrix(-1.52996 2.0767 -2.27511 -1.39654 314.181 957.123)" gradientUnits="userSpaceOnUse">
<stop offset="0.19" stop-color="#00FFFF"/>
<stop offset="0.4" stop-color="#00FCFD" stop-opacity="0.99"/>
<stop offset="0.51" stop-color="#02F4F7" stop-opacity="0.96"/>
<stop offset="0.6" stop-color="#05E7EE" stop-opacity="0.91"/>
<stop offset="0.68" stop-color="#0AD4E1" stop-opacity="0.83"/>
<stop offset="0.74" stop-color="#10BBCF" stop-opacity="0.74"/>
<stop offset="0.81" stop-color="#179CBA" stop-opacity="0.62"/>
<stop offset="0.86" stop-color="#2078A1" stop-opacity="0.47"/>
<stop offset="0.92" stop-color="#2A4E83" stop-opacity="0.31"/>
<stop offset="0.97" stop-color="#351F63" stop-opacity="0.13"/>
<stop offset="1" stop-color="#3D004D" stop-opacity="0"/>
</radialGradient>
<radialGradient id="paint17_radial_612_846" cx="0" cy="0" r="1" gradientTransform="matrix(-1.16641 1.58323 -1.73449 -1.06469 315.607 940.978)" gradientUnits="userSpaceOnUse">
<stop offset="0.19" stop-color="#00FFFF"/>
<stop offset="0.4" stop-color="#00FCFD" stop-opacity="0.99"/>
<stop offset="0.51" stop-color="#02F4F7" stop-opacity="0.96"/>
<stop offset="0.6" stop-color="#05E7EE" stop-opacity="0.91"/>
<stop offset="0.68" stop-color="#0AD4E1" stop-opacity="0.83"/>
<stop offset="0.74" stop-color="#10BBCF" stop-opacity="0.74"/>
<stop offset="0.81" stop-color="#179CBA" stop-opacity="0.62"/>
<stop offset="0.86" stop-color="#2078A1" stop-opacity="0.47"/>
<stop offset="0.92" stop-color="#2A4E83" stop-opacity="0.31"/>
<stop offset="0.97" stop-color="#351F63" stop-opacity="0.13"/>
<stop offset="1" stop-color="#3D004D" stop-opacity="0"/>
</radialGradient>
<radialGradient id="paint18_radial_612_846" cx="0" cy="0" r="1" gradientTransform="matrix(-1.34818 1.82996 -2.0048 -1.23061 422.694 734.66)" gradientUnits="userSpaceOnUse">
<stop offset="0.19" stop-color="#00FFFF"/>
<stop offset="0.4" stop-color="#00FCFD" stop-opacity="0.99"/>
<stop offset="0.51" stop-color="#02F4F7" stop-opacity="0.96"/>
<stop offset="0.6" stop-color="#05E7EE" stop-opacity="0.91"/>
<stop offset="0.68" stop-color="#0AD4E1" stop-opacity="0.83"/>
<stop offset="0.74" stop-color="#10BBCF" stop-opacity="0.74"/>
<stop offset="0.81" stop-color="#179CBA" stop-opacity="0.62"/>
<stop offset="0.86" stop-color="#2078A1" stop-opacity="0.47"/>
<stop offset="0.92" stop-color="#2A4E83" stop-opacity="0.31"/>
<stop offset="0.97" stop-color="#351F63" stop-opacity="0.13"/>
<stop offset="1" stop-color="#3D004D" stop-opacity="0"/>
</radialGradient>
<radialGradient id="paint19_radial_612_846" cx="0" cy="0" r="1" gradientTransform="matrix(-1.54511 2.09726 -2.29764 -1.41036 346.824 546.583)" gradientUnits="userSpaceOnUse">
<stop offset="0.19" stop-color="#00FFFF"/>
<stop offset="0.4" stop-color="#00FCFD" stop-opacity="0.99"/>
<stop offset="0.51" stop-color="#02F4F7" stop-opacity="0.96"/>
<stop offset="0.6" stop-color="#05E7EE" stop-opacity="0.91"/>
<stop offset="0.68" stop-color="#0AD4E1" stop-opacity="0.83"/>
<stop offset="0.74" stop-color="#10BBCF" stop-opacity="0.74"/>
<stop offset="0.81" stop-color="#179CBA" stop-opacity="0.62"/>
<stop offset="0.86" stop-color="#2078A1" stop-opacity="0.47"/>
<stop offset="0.92" stop-color="#2A4E83" stop-opacity="0.31"/>
<stop offset="0.97" stop-color="#351F63" stop-opacity="0.13"/>
<stop offset="1" stop-color="#3D004D" stop-opacity="0"/>
</radialGradient>
<radialGradient id="paint20_radial_612_846" cx="0" cy="0" r="1" gradientTransform="matrix(-1.30274 1.76827 -1.93722 -1.18912 410.148 437.23)" gradientUnits="userSpaceOnUse">
<stop offset="0.19" stop-color="#00FFFF"/>
<stop offset="0.4" stop-color="#00FCFD" stop-opacity="0.99"/>
<stop offset="0.51" stop-color="#02F4F7" stop-opacity="0.96"/>
<stop offset="0.6" stop-color="#05E7EE" stop-opacity="0.91"/>
<stop offset="0.68" stop-color="#0AD4E1" stop-opacity="0.83"/>
<stop offset="0.74" stop-color="#10BBCF" stop-opacity="0.74"/>
<stop offset="0.81" stop-color="#179CBA" stop-opacity="0.62"/>
<stop offset="0.86" stop-color="#2078A1" stop-opacity="0.47"/>
<stop offset="0.92" stop-color="#2A4E83" stop-opacity="0.31"/>
<stop offset="0.97" stop-color="#351F63" stop-opacity="0.13"/>
<stop offset="1" stop-color="#3D004D" stop-opacity="0"/>
</radialGradient>
<radialGradient id="paint21_radial_612_846" cx="0" cy="0" r="1" gradientTransform="matrix(-1.28759 1.74771 -1.91469 -1.1753 256.483 444.22)" gradientUnits="userSpaceOnUse">
<stop offset="0.19" stop-color="#00FFFF"/>
<stop offset="0.4" stop-color="#00FCFD" stop-opacity="0.99"/>
<stop offset="0.51" stop-color="#02F4F7" stop-opacity="0.96"/>
<stop offset="0.6" stop-color="#05E7EE" stop-opacity="0.91"/>
<stop offset="0.68" stop-color="#0AD4E1" stop-opacity="0.83"/>
<stop offset="0.74" stop-color="#10BBCF" stop-opacity="0.74"/>
<stop offset="0.81" stop-color="#179CBA" stop-opacity="0.62"/>
<stop offset="0.86" stop-color="#2078A1" stop-opacity="0.47"/>
<stop offset="0.92" stop-color="#2A4E83" stop-opacity="0.31"/>
<stop offset="0.97" stop-color="#351F63" stop-opacity="0.13"/>
<stop offset="1" stop-color="#3D004D" stop-opacity="0"/>
</radialGradient>
<radialGradient id="paint22_radial_612_846" cx="0" cy="0" r="1" gradientTransform="matrix(-1.81778 2.46736 -2.70311 -1.65925 62.6172 364.843)" gradientUnits="userSpaceOnUse">
<stop offset="0.19" stop-color="#00FFFF"/>
<stop offset="0.4" stop-color="#00FCFD" stop-opacity="0.99"/>
<stop offset="0.51" stop-color="#02F4F7" stop-opacity="0.96"/>
<stop offset="0.6" stop-color="#05E7EE" stop-opacity="0.91"/>
<stop offset="0.68" stop-color="#0AD4E1" stop-opacity="0.83"/>
<stop offset="0.74" stop-color="#10BBCF" stop-opacity="0.74"/>
<stop offset="0.81" stop-color="#179CBA" stop-opacity="0.62"/>
<stop offset="0.86" stop-color="#2078A1" stop-opacity="0.47"/>
<stop offset="0.92" stop-color="#2A4E83" stop-opacity="0.31"/>
<stop offset="0.97" stop-color="#351F63" stop-opacity="0.13"/>
<stop offset="1" stop-color="#3D004D" stop-opacity="0"/>
</radialGradient>
<radialGradient id="paint23_radial_612_846" cx="0" cy="0" r="1" gradientTransform="matrix(-2.0753 2.81692 -3.08604 -1.89432 43.5974 271.084)" gradientUnits="userSpaceOnUse">
<stop offset="0.19" stop-color="#00FFFF"/>
<stop offset="0.4" stop-color="#00FCFD" stop-opacity="0.99"/>
<stop offset="0.51" stop-color="#02F4F7" stop-opacity="0.96"/>
<stop offset="0.6" stop-color="#05E7EE" stop-opacity="0.91"/>
<stop offset="0.68" stop-color="#0AD4E1" stop-opacity="0.83"/>
<stop offset="0.74" stop-color="#10BBCF" stop-opacity="0.74"/>
<stop offset="0.81" stop-color="#179CBA" stop-opacity="0.62"/>
<stop offset="0.86" stop-color="#2078A1" stop-opacity="0.47"/>
<stop offset="0.92" stop-color="#2A4E83" stop-opacity="0.31"/>
<stop offset="0.97" stop-color="#351F63" stop-opacity="0.13"/>
<stop offset="1" stop-color="#3D004D" stop-opacity="0"/>
</radialGradient>
<radialGradient id="paint24_radial_612_846" cx="0" cy="0" r="1" gradientTransform="matrix(-2.18134 2.96084 -3.24372 -1.9911 186.433 273.242)" gradientUnits="userSpaceOnUse">
<stop offset="0.19" stop-color="#00FFFF"/>
<stop offset="0.4" stop-color="#00FCFD" stop-opacity="0.99"/>
<stop offset="0.51" stop-color="#02F4F7" stop-opacity="0.96"/>
<stop offset="0.6" stop-color="#05E7EE" stop-opacity="0.91"/>
<stop offset="0.68" stop-color="#0AD4E1" stop-opacity="0.83"/>
<stop offset="0.74" stop-color="#10BBCF" stop-opacity="0.74"/>
<stop offset="0.81" stop-color="#179CBA" stop-opacity="0.62"/>
<stop offset="0.86" stop-color="#2078A1" stop-opacity="0.47"/>
<stop offset="0.92" stop-color="#2A4E83" stop-opacity="0.31"/>
<stop offset="0.97" stop-color="#351F63" stop-opacity="0.13"/>
<stop offset="1" stop-color="#3D004D" stop-opacity="0"/>
</radialGradient>
<radialGradient id="paint25_radial_612_846" cx="0" cy="0" r="1" gradientTransform="matrix(-2.83271 3.84498 -4.21234 -2.58567 192.891 950.184)" gradientUnits="userSpaceOnUse">
<stop offset="0.19" stop-color="#00FFFF"/>
<stop offset="0.4" stop-color="#00FCFD" stop-opacity="0.99"/>
<stop offset="0.51" stop-color="#02F4F7" stop-opacity="0.96"/>
<stop offset="0.6" stop-color="#05E7EE" stop-opacity="0.91"/>
<stop offset="0.68" stop-color="#0AD4E1" stop-opacity="0.83"/>
<stop offset="0.74" stop-color="#10BBCF" stop-opacity="0.74"/>
<stop offset="0.81" stop-color="#179CBA" stop-opacity="0.62"/>
<stop offset="0.86" stop-color="#2078A1" stop-opacity="0.47"/>
<stop offset="0.92" stop-color="#2A4E83" stop-opacity="0.31"/>
<stop offset="0.97" stop-color="#351F63" stop-opacity="0.13"/>
<stop offset="1" stop-color="#3D004D" stop-opacity="0"/>
</radialGradient>
<radialGradient id="paint26_radial_612_846" cx="0" cy="0" r="1" gradientTransform="matrix(-2.59034 3.51598 -3.85192 -2.36442 429.872 932.497)" gradientUnits="userSpaceOnUse">
<stop offset="0.19" stop-color="#00FFFF"/>
<stop offset="0.4" stop-color="#00FCFD" stop-opacity="0.99"/>
<stop offset="0.51" stop-color="#02F4F7" stop-opacity="0.96"/>
<stop offset="0.6" stop-color="#05E7EE" stop-opacity="0.91"/>
<stop offset="0.68" stop-color="#0AD4E1" stop-opacity="0.83"/>
<stop offset="0.74" stop-color="#10BBCF" stop-opacity="0.74"/>
<stop offset="0.81" stop-color="#179CBA" stop-opacity="0.62"/>
<stop offset="0.86" stop-color="#2078A1" stop-opacity="0.47"/>
<stop offset="0.92" stop-color="#2A4E83" stop-opacity="0.31"/>
<stop offset="0.97" stop-color="#351F63" stop-opacity="0.13"/>
<stop offset="1" stop-color="#3D004D" stop-opacity="0"/>
</radialGradient>
<radialGradient id="paint27_radial_612_846" cx="0" cy="0" r="1" gradientTransform="matrix(-2.09044 2.83746 -3.10856 -1.90813 367.057 835.354)" gradientUnits="userSpaceOnUse">
<stop offset="0.19" stop-color="#00FFFF"/>
<stop offset="0.4" stop-color="#00FCFD" stop-opacity="0.99"/>
<stop offset="0.51" stop-color="#02F4F7" stop-opacity="0.96"/>
<stop offset="0.6" stop-color="#05E7EE" stop-opacity="0.91"/>
<stop offset="0.68" stop-color="#0AD4E1" stop-opacity="0.83"/>
<stop offset="0.74" stop-color="#10BBCF" stop-opacity="0.74"/>
<stop offset="0.81" stop-color="#179CBA" stop-opacity="0.62"/>
<stop offset="0.86" stop-color="#2078A1" stop-opacity="0.47"/>
<stop offset="0.92" stop-color="#2A4E83" stop-opacity="0.31"/>
<stop offset="0.97" stop-color="#351F63" stop-opacity="0.13"/>
<stop offset="1" stop-color="#3D004D" stop-opacity="0"/>
</radialGradient>
<radialGradient id="paint28_radial_612_846" cx="0" cy="0" r="1" gradientTransform="matrix(-1.39363 1.89166 -2.07238 -1.2721 327.104 773.028)" gradientUnits="userSpaceOnUse">
<stop offset="0.19" stop-color="#00FFFF"/>
<stop offset="0.4" stop-color="#00FCFD" stop-opacity="0.99"/>
<stop offset="0.51" stop-color="#02F4F7" stop-opacity="0.96"/>
<stop offset="0.6" stop-color="#05E7EE" stop-opacity="0.91"/>
<stop offset="0.68" stop-color="#0AD4E1" stop-opacity="0.83"/>
<stop offset="0.74" stop-color="#10BBCF" stop-opacity="0.74"/>
<stop offset="0.81" stop-color="#179CBA" stop-opacity="0.62"/>
<stop offset="0.86" stop-color="#2078A1" stop-opacity="0.47"/>
<stop offset="0.92" stop-color="#2A4E83" stop-opacity="0.31"/>
<stop offset="0.97" stop-color="#351F63" stop-opacity="0.13"/>
<stop offset="1" stop-color="#3D004D" stop-opacity="0"/>
</radialGradient>
</defs>
</svg>
